<?xml version="1.0" standalone="yes"?>
<svg xmlns="http://www.w3.org/2000/svg" width="500" height="500">
<path style="fill:#38fd9a; stroke:none;" d="M30 198L30 199L59 199L30 198z"/>
<path style="fill:#66fdb2; stroke:none;" d="M80 198L81 199L80 198z"/>
<path style="fill:#38fd9a; stroke:none;" d="M80 199L80 200L108 199C101.187 196.141 87.0348 196.921 80 199M124 198L124 199C144.75 199 169.813 195.194 190 200L171 198L124 198z"/>
<path style="fill:#66fdb2; stroke:none;" d="M189 198L190 199L189 198z"/>
<path style="fill:#38fd9a; stroke:none;" d="M200 198L200 199L272 199L249 198L200 198z"/>
<path style="fill:#a4ffd1; stroke:none;" d="M284 198L285 199L284 198z"/>
<path style="fill:#38fd9a; stroke:none;" d="M285 198L285 199L313 199L285 198z"/>
<path style="fill:#a4ffd1; stroke:none;" d="M313 198L314 199L313 198z"/>
<path style="fill:#66fdb2; stroke:none;" d="M324 198L325 199L324 198z"/>
<path style="fill:#38fd9a; stroke:none;" d="M324 199L324 200L355 199C347.664 195.922 331.585 196.758 324 199M378 198L378 199L409 200C404.392 194.726 384.916 198 378 198M419 198L419 199L485 199L464 198L419 198z"/>
<path style="fill:#a4ffd1; stroke:none;" d="M29.3333 199.667L29.6667 200.333L29.3333 199.667z"/>
<path style="fill:#02fd7f; stroke:none;" d="M30 199L17 299L43.2577 297.972L45.8449 287L49 257C55.4989 264.366 57.9236 277.817 61.3187 287C62.5096 290.221 63.547 295.895 66.51 297.972C72.2181 301.973 88.1168 299 95 299C95.6685 266.611 102.08 230.869 108 199L81.6034 200.028L79 211L75 241C70.2478 231.981 67.449 221.576 63.9468 212C62.6737 208.519 61.5126 202.29 58.3511 200.028C52.7576 196.025 36.7917 199 30 199z"/>
<path style="fill:#66fdb2; stroke:none;" d="M59 199L60 200L59 199z"/>
<path style="fill:#a4ffd1; stroke:none;" d="M123.333 199.667L123.667 200.333L123.333 199.667z"/>
<path style="fill:#02fd7f; stroke:none;" d="M124 199L111 299L158 299C162.325 299 171.845 300.778 175.397 297.972C179.609 294.645 178.986 279.071 179 274L143 274L144 261L175 261L179 235L148 235L149 224L175 224C177.866 224 182.859 224.912 185.258 222.972C189.414 219.612 188.958 204.096 189 199L124 199M200 199L197 224L219 224C212.346 246.302 210 275.71 209 299L236.258 297.972L239.87 279L247 224L269 224L272 199L200 199z"/>
<path style="fill:#66fdb2; stroke:none;" d="M284 199L285 200L284 199z"/>
<path style="fill:#02fd7f; stroke:none;" d="M272 299L300 299C305.972 266.851 311.597 231.661 313 199L285.742 200.028L281.282 225L272 299z"/>
<path style="fill:#66fdb2; stroke:none;" d="M313 199L314 200L313 199z"/>
<path style="fill:#02fd7f; stroke:none;" d="M325 199L335 299L372 299C381.164 265.426 402.103 233.271 408 199C401.183 199 384.215 195.893 378.702 200.028C375.125 202.711 374.022 210.934 372.667 215C368.252 228.244 364.657 242.239 359 255C354.931 237.907 355 216.587 355 199L325 199z"/>
<path style="fill:#a4ffd1; stroke:none;" d="M377 199L378 200L377 199z"/>
<path style="fill:#02fd7f; stroke:none;" d="M419 199L412.282 253L406 299L472 299L475 274L438 274C438.395 270.873 438.234 265.979 440.027 263.318C445.266 255.542 462.628 265.293 469.397 259.972C473.735 256.563 473.322 240.364 474 235L443 235L444 224L482 224L485 199L419 199z"/>
<path style="fill:#38fd9a; stroke:none;" d="M59 200L60 201L59 200z"/>
<path style="fill:#66fdb2; stroke:none;" d="M189.333 200.667L189.667 201.333L189.333 200.667z"/>
<path style="fill:#a4ffd1; stroke:none;" d="M199 200L199 203L200 203L199 200z"/>
<path style="fill:#38fd9a; stroke:none;" d="M284 200L285 201L284 200z"/>
<path style="fill:#a4ffd1; stroke:none;" d="M313.333 200.667L313.667 201.333L313.333 200.667z"/>
<path style="fill:#66fdb2; stroke:none;" d="M324.333 200.667L324.667 201.333L324.333 200.667z"/>
<path style="fill:#a4ffd1; stroke:none;" d="M355 200L355 204L356 204L355 200z"/>
<path style="fill:#38fd9a; stroke:none;" d="M377 200L378 201L377 200z"/>
<path style="fill:#a4ffd1; stroke:none;" d="M408 200L409 201L408 200z"/>
<path style="fill:#38fd9a; stroke:none;" d="M484.333 200.667L484.667 201.333L484.333 200.667z"/>
<path style="fill:#66fdb2; stroke:none;" d="M29.3333 201.667L29.6667 202.333L29.3333 201.667z"/>
<path style="fill:#a4ffd1; stroke:none;" d="M60 201L61 202L60 201z"/>
<path style="fill:#38fd9a; stroke:none;" d="M107.333 201.667L107.667 202.333L107.333 201.667z"/>
<path style="fill:#66fdb2; stroke:none;" d="M123 201L124 202L123 201z"/>
<path style="fill:#38fd9a; stroke:none;" d="M271.333 201.667L271.667 202.333L271.333 201.667z"/>
<path style="fill:#a4ffd1; stroke:none;" d="M418.333 201.667L418.667 202.333L418.333 201.667z"/>
<path style="fill:#66fdb2; stroke:none;" d="M60 202L61 203L60 202z"/>
<path style="fill:#a4ffd1; stroke:none;" d="M79.3333 202.667L79.6667 203.333L79.3333 202.667z"/>
<path style="fill:#38fd9a; stroke:none;" d="M123.333 202.667L123.667 203.333L123.333 202.667z"/>
<path style="fill:#a4ffd1; stroke:none;" d="M189.333 202.667L189.667 203.333L189.333 202.667M324.333 202.667L324.667 203.333L324.333 202.667M376 202L377 203L376 202z"/>
<path style="fill:#66fdb2; stroke:none;" d="M407 202L408 203L407 202M484.333 202.667L484.667 203.333L484.333 202.667z"/>
<path style="fill:#38fd9a; stroke:none;" d="M29 203L30 204L29 203z"/>
<path style="fill:#66fdb2; stroke:none;" d="M107 203L108 204L107 203M199 203L200 204L199 203M271.333 203.667L271.667 204.333L271.333 203.667z"/>
<path style="fill:#38fd9a; stroke:none;" d="M376 203L377 204L376 203z"/>
<path style="fill:#a4ffd1; stroke:none;" d="M407 203L408 204L407 203z"/>
<path style="fill:#66fdb2; stroke:none;" d="M418 203L419 204L418 203z"/>
<path style="fill:#38fd9a; stroke:none;" d="M34.3333 204.667L34.6667 205.333L34.3333 204.667z"/>
<path style="fill:#38fd9a; stroke:none;" d="M55 204L56 205L55 204z"/>
<path style="fill:#a4ffd1; stroke:none;" d="M61 204L62 205L61 204z"/>
<path style="fill:#66fdb2; stroke:none;" d="M79.3333 204.667L79.6667 205.333L79.3333 204.667z"/>
<path style="fill:#a4ffd1; stroke:none;" d="M85 204L86 205L85 204M101 204L102 205L101 204M107.333 204.667L107.667 205.333L107.333 204.667z"/>
<path style="fill:#38fd9a; stroke:none;" d="M128.333 204.667L128.667 205.333L128.333 204.667z"/>
<path style="fill:#66fdb2; stroke:none;" d="M183 204L184 205L183 204z"/>
<path style="fill:#38fd9a; stroke:none;" d="M199.333 204.667L199.667 205.333L199.333 204.667z"/>
<path style="fill:#a4ffd1; stroke:none;" d="M265.333 204.667L265.667 205.333L265.333 204.667M283.333 204.667L283.667 205.333L283.333 204.667z"/>
<path style="fill:#66fdb2; stroke:none;" d="M289 204L290 205L289 204z"/>
<path style="fill:#38fd9a; stroke:none;" d="M312.333 204.667L312.667 205.333L312.333 204.667z"/>
<path style="fill:#66fdb2; stroke:none;" d="M330 204L331 205L330 204z"/>
<path style="fill:#a4ffd1; stroke:none;" d="M349.333 204.667L349.667 205.333L349.333 204.667z"/>
<path style="fill:#66fdb2; stroke:none;" d="M355 204L355 207L356 207L355 204z"/>
<path style="fill:#38fd9a; stroke:none;" d="M381 204L382 205L381 204z"/>
<path style="fill:#a4ffd1; stroke:none;" d="M400 204L401 205L400 204z"/>
<path style="fill:#38fd9a; stroke:none;" d="M406 204L407 205L406 204M418.333 204.667L418.667 205.333L418.333 204.667z"/>
<path style="fill:#a4ffd1; stroke:none;" d="M478 204L479 205L478 204M484.333 204.667L484.667 205.333L484.333 204.667M55 205L56 206L55 205z"/>
<path style="fill:#38fd9a; stroke:none;" d="M61 205L62 206L61 205z"/>
<path style="fill:#66fdb2; stroke:none;" d="M101.333 205.667L101.667 206.333L101.333 205.667z"/>
<path style="fill:#38fd9a; stroke:none;" d="M183.333 205.667L183.667 206.333L183.333 205.667z"/>
<path style="fill:#a4ffd1; stroke:none;" d="M271.333 205.667L271.667 206.333L271.333 205.667M289.333 205.667L289.667 206.333L289.333 205.667z"/>
<path style="fill:#38fd9a; stroke:none;" d="M330.333 205.667L330.667 206.333L330.333 205.667z"/>
<path style="fill:#a4ffd1; stroke:none;" d="M375 205L376 206L375 205z"/>
<path style="fill:#66fdb2; stroke:none;" d="M381 205L382 206L381 205M400 205L401 206L400 205M406 205L407 206L406 205M478.333 205.667L478.667 206.333L478.333 205.667M34.3333 206.667L34.6667 207.333L34.3333 206.667z"/>
<path style="fill:#38fd9a; stroke:none;" d="M79.3333 206.667L79.6667 207.333L79.3333 206.667z"/>
<path style="fill:#a4ffd1; stroke:none;" d="M122.333 206.667L122.667 207.333L122.333 206.667z"/>
<path style="fill:#66fdb2; stroke:none;" d="M128.333 206.667L128.667 207.333L128.333 206.667z"/>
<path style="fill:#38fd9a; stroke:none;" d="M188.333 206.667L188.667 207.333L188.333 206.667M204 206L205 207L204 206z"/>
<path style="fill:#66fdb2; stroke:none;" d="M265.333 206.667L265.667 207.333L265.333 206.667M283 206L284 207L283 206z"/>
<path style="fill:#a4ffd1; stroke:none;" d="M306 206L306 209L307 209L306 206z"/>
<path style="fill:#66fdb2; stroke:none;" d="M312 206L313 207L312 206z"/>
<path style="fill:#38fd9a; stroke:none;" d="M375 206L376 207L375 206z"/>
<path style="fill:#a4ffd1; stroke:none;" d="M381 206L382 207L381 206z"/>
<path style="fill:#38fd9a; stroke:none;" d="M423.333 206.667L423.667 207.333L423.333 206.667z"/>
<path style="fill:#a4ffd1; stroke:none;" d="M28.3333 207.667L28.6667 208.333L28.3333 207.667z"/>
<path style="fill:#66fdb2; stroke:none;" d="M56 207L57 208L56 207z"/>
<path style="fill:#a4ffd1; stroke:none;" d="M62 207L63 208L62 207z"/>
<path style="fill:#38fd9a; stroke:none;" d="M84.3333 207.667L84.6667 208.333L84.3333 207.667M101.333 207.667L101.667 208.333L101.333 207.667z"/>
<path style="fill:#66fdb2; stroke:none;" d="M204.333 207.667L204.667 208.333L204.333 207.667z"/>
<path style="fill:#38fd9a; stroke:none;" d="M283.333 207.667L283.667 208.333L283.333 207.667z"/>
<path style="fill:#a4ffd1; stroke:none;" d="M312 207L312 210L313 210L312 207z"/>
<path style="fill:#38fd9a; stroke:none;" d="M325.333 207.667L325.667 208.333L325.333 207.667M355 207L355 211L356 211L355 207M380 207L381 208L380 207z"/>
<path style="fill:#a4ffd1; stroke:none;" d="M399 207L400 208L399 207z"/>
<path style="fill:#38fd9a; stroke:none;" d="M405 207L406 208L405 207M478.333 207.667L478.667 208.333L478.333 207.667z"/>
<path style="fill:#a4ffd1; stroke:none;" d="M34.3333 208.667L34.6667 209.333L34.3333 208.667M56 208L57 209L56 208z"/>
<path style="fill:#38fd9a; stroke:none;" d="M62 208L63 209L62 208z"/>
<path style="fill:#66fdb2; stroke:none;" d="M122.333 208.667L122.667 209.333L122.333 208.667z"/>
<path style="fill:#a4ffd1; stroke:none;" d="M128.333 208.667L128.667 209.333L128.333 208.667z"/>
<path style="fill:#66fdb2; stroke:none;" d="M188.333 208.667L188.667 209.333L188.333 208.667z"/>
<path style="fill:#a4ffd1; stroke:none;" d="M198.333 208.667L198.667 209.333L198.333 208.667z"/>
<path style="fill:#38fd9a; stroke:none;" d="M265 208L266 209L265 208z"/>
<path style="fill:#a4ffd1; stroke:none;" d="M374 208L375 209L374 208z"/>
<path style="fill:#66fdb2; stroke:none;" d="M380 208L381 209L380 208z"/>
<path style="fill:#38fd9a; stroke:none;" d="M399 208L400 209L399 208z"/>
<path style="fill:#a4ffd1; stroke:none;" d="M405 208L406 209L405 208M417.333 208.667L417.667 209.333L417.333 208.667z"/>
<path style="fill:#66fdb2; stroke:none;" d="M423.333 208.667L423.667 209.333L423.333 208.667z"/>
<path style="fill:#38fd9a; stroke:none;" d="M483.333 208.667L483.667 209.333L483.333 208.667z"/>
<path style="fill:#66fdb2; stroke:none;" d="M28 209L29 210L28 209M84.3333 209.667L84.6667 210.333L84.3333 209.667z"/>
<path style="fill:#38fd9a; stroke:none;" d="M106 209L107 210L106 209z"/>
<path style="fill:#a4ffd1; stroke:none;" d="M182.333 209.667L182.667 210.333L182.333 209.667M204.333 209.667L204.667 210.333L204.333 209.667z"/>
<path style="fill:#38fd9a; stroke:none;" d="M270.333 209.667L270.667 210.333L270.333 209.667M288.333 209.667L288.667 210.333L288.333 209.667z"/>
<path style="fill:#66fdb2; stroke:none;" d="M306 209L307 210L306 209M325.333 209.667L325.667 210.333L325.333 209.667z"/>
<path style="fill:#a4ffd1; stroke:none;" d="M331 209L331 212L332 212L331 209z"/>
<path style="fill:#38fd9a; stroke:none;" d="M374 209L375 210L374 209z"/>
<path style="fill:#a4ffd1; stroke:none;" d="M380 209L381 210L380 209z"/>
<path style="fill:#38fd9a; stroke:none;" d="M28.3333 210.667L28.6667 211.333L28.3333 210.667z"/>
<path style="fill:#66fdb2; stroke:none;" d="M57 210L58 211L57 210M63 210L64 211L63 210z"/>
<path style="fill:#a4ffd1; stroke:none;" d="M78.3333 210.667L78.6667 211.333L78.3333 210.667z"/>
<path style="fill:#66fdb2; stroke:none;" d="M106.333 210.667L106.667 211.333L106.333 210.667z"/>
<path style="fill:#38fd9a; stroke:none;" d="M122.333 210.667L122.667 211.333L122.333 210.667z"/>
<path style="fill:#a4ffd1; stroke:none;" d="M188.333 210.667L188.667 211.333L188.333 210.667z"/>
<path style="fill:#66fdb2; stroke:none;" d="M198.333 210.667L198.667 211.333L198.333 210.667z"/>
<path style="fill:#38fd9a; stroke:none;" d="M306.333 210.667L306.667 211.333L306.333 210.667M350 210L350 214L351 214L350 210M379 210L380 211L379 210z"/>
<path style="fill:#a4ffd1; stroke:none;" d="M398 210L399 211L398 210z"/>
<path style="fill:#66fdb2; stroke:none;" d="M404 210L405 211L404 210M417.333 210.667L417.667 211.333L417.333 210.667z"/>
<path style="fill:#a4ffd1; stroke:none;" d="M423.333 210.667L423.667 211.333L423.333 210.667z"/>
<path style="fill:#66fdb2; stroke:none;" d="M483.333 210.667L483.667 211.333L483.333 210.667z"/>
<path style="fill:#a4ffd1; stroke:none;" d="M84.3333 211.667L84.6667 212.333L84.3333 211.667M100.333 211.667L100.667 212.333L100.333 211.667z"/>
<path style="fill:#66fdb2; stroke:none;" d="M182 211L183 212L182 211z"/>
<path style="fill:#a4ffd1; stroke:none;" d="M264 211L264 214L265 214L264 211z"/>
<path style="fill:#66fdb2; stroke:none;" d="M270 211L271 212L270 211z"/>
<path style="fill:#a4ffd1; stroke:none;" d="M282.333 211.667L282.667 212.333L282.333 211.667z"/>
<path style="fill:#66fdb2; stroke:none;" d="M288 211L289 212L288 211z"/>
<path style="fill:#a4ffd1; stroke:none;" d="M325 211L325 214L326 214L325 211M373 211L374 212L373 211z"/>
<path style="fill:#66fdb2; stroke:none;" d="M379 211L380 212L379 211z"/>
<path style="fill:#38fd9a; stroke:none;" d="M398 211L399 212L398 211z"/>
<path style="fill:#a4ffd1; stroke:none;" d="M404 211L405 212L404 211M477.333 211.667L477.667 212.333L477.333 211.667z"/>
<path style="fill:#38fd9a; stroke:none;" d="M33.3333 212.667L33.6667 213.333L33.3333 212.667M58 212L59 213L58 212z"/>
<path style="fill:#a4ffd1; stroke:none;" d="M64 212L65 213L64 212z"/>
<path style="fill:#66fdb2; stroke:none;" d="M78 212L79 213L78 212z"/>
<path style="fill:#a4ffd1; stroke:none;" d="M106.333 212.667L106.667 213.333L106.333 212.667z"/>
<path style="fill:#38fd9a; stroke:none;" d="M127.333 212.667L127.667 213.333L127.333 212.667M182.333 212.667L182.667 213.333L182.333 212.667M198.333 212.667L198.667 213.333L198.333 212.667z"/>
<path style="fill:#a4ffd1; stroke:none;" d="M270 212L270 215L271 215L270 212M288.333 212.667L288.667 213.333L288.333 212.667z"/>
<path style="fill:#38fd9a; stroke:none;" d="M311 212L312 213L311 212z"/>
<path style="fill:#66fdb2; stroke:none;" d="M331.333 212.667L331.667 213.333L331.333 212.667z"/>
<path style="fill:#38fd9a; stroke:none;" d="M373 212L374 213L373 212z"/>
<path style="fill:#a4ffd1; stroke:none;" d="M379 212L380 213L379 212z"/>
<path style="fill:#38fd9a; stroke:none;" d="M403 212L404 213L403 212M417.333 212.667L417.667 213.333L417.333 212.667z"/>
<path style="fill:#a4ffd1; stroke:none;" d="M483.333 212.667L483.667 213.333L483.333 212.667M58 213L59 214L58 213z"/>
<path style="fill:#66fdb2; stroke:none;" d="M64 213L65 214L64 213z"/>
<path style="fill:#38fd9a; stroke:none;" d="M78.3333 213.667L78.6667 214.333L78.3333 213.667z"/>
<path style="fill:#66fdb2; stroke:none;" d="M100.333 213.667L100.667 214.333L100.333 213.667M282.333 213.667L282.667 214.333L282.333 213.667M311.333 213.667L311.667 214.333L311.333 213.667z"/>
<path style="fill:#38fd9a; stroke:none;" d="M378 213L379 214L378 213z"/>
<path style="fill:#66fdb2; stroke:none;" d="M397 213L398 214L397 213M403 213L404 214L403 213M477 213L478 214L477 213z"/>
<path style="fill:#a4ffd1; stroke:none;" d="M27.3333 214.667L27.6667 215.333L27.3333 214.667z"/>
<path style="fill:#66fdb2; stroke:none;" d="M33 214L34 215L33 214z"/>
<path style="fill:#a4ffd1; stroke:none;" d="M121.333 214.667L121.667 215.333L121.333 214.667z"/>
<path style="fill:#66fdb2; stroke:none;" d="M127 214L128 215L127 214z"/>
<path style="fill:#38fd9a; stroke:none;" d="M187.333 214.667L187.667 215.333L187.333 214.667M203 214L204 215L203 214z"/>
<path style="fill:#66fdb2; stroke:none;" d="M264 214L265 215L264 214z"/>
<path style="fill:#a4ffd1; stroke:none;" d="M305.333 214.667L305.667 215.333L305.333 214.667z"/>
<path style="fill:#38fd9a; stroke:none;" d="M331.333 214.667L331.667 215.333L331.333 214.667z"/>
<path style="fill:#66fdb2; stroke:none;" d="M350 214L350 217L351 217L350 214z"/>
<path style="fill:#a4ffd1; stroke:none;" d="M372 214L373 215L372 214z"/>
<path style="fill:#66fdb2; stroke:none;" d="M378 214L379 215L378 214z"/>
<path style="fill:#38fd9a; stroke:none;" d="M397 214L398 215L397 214z"/>
<path style="fill:#a4ffd1; stroke:none;" d="M403 214L404 215L403 214z"/>
<path style="fill:#38fd9a; stroke:none;" d="M422.333 214.667L422.667 215.333L422.333 214.667M477.333 214.667L477.667 215.333L477.333 214.667z"/>
<path style="fill:#a4ffd1; stroke:none;" d="M33.3333 215.667L33.6667 216.333L33.3333 215.667z"/>
<path style="fill:#38fd9a; stroke:none;" d="M59 215L60 216L59 215z"/>
<path style="fill:#a4ffd1; stroke:none;" d="M65 215L66 216L65 215z"/>
<path style="fill:#38fd9a; stroke:none;" d="M83.3333 215.667L83.6667 216.333L83.3333 215.667M100 215L101 216L100 215z"/>
<path style="fill:#a4ffd1; stroke:none;" d="M127.333 215.667L127.667 216.333L127.333 215.667z"/>
<path style="fill:#66fdb2; stroke:none;" d="M203.333 215.667L203.667 216.333L203.333 215.667z"/>
<path style="fill:#38fd9a; stroke:none;" d="M264.333 215.667L264.667 216.333L264.333 215.667M282.333 215.667L282.667 216.333L282.333 215.667z"/>
<path style="fill:#a4ffd1; stroke:none;" d="M311.333 215.667L311.667 216.333L311.333 215.667M356 215L356 218L357 218L356 215z"/>
<path style="fill:#38fd9a; stroke:none;" d="M372 215L373 216L372 215z"/>
<path style="fill:#a4ffd1; stroke:none;" d="M378 215L379 216L378 215M396 215L397 216L396 215z"/>
<path style="fill:#38fd9a; stroke:none;" d="M402 215L403 216L402 215z"/>
<path style="fill:#66fdb2; stroke:none;" d="M27.3333 216.667L27.6667 217.333L27.3333 216.667z"/>
<path style="fill:#a4ffd1; stroke:none;" d="M59 216L60 217L59 216z"/>
<path style="fill:#38fd9a; stroke:none;" d="M65 216L66 217L65 216M105.333 216.667L105.667 217.333L105.333 216.667z"/>
<path style="fill:#66fdb2; stroke:none;" d="M121.333 216.667L121.667 217.333L121.333 216.667z"/>
<path style="fill:#a4ffd1; stroke:none;" d="M181.333 216.667L181.667 217.333L181.333 216.667z"/>
<path style="fill:#66fdb2; stroke:none;" d="M187.333 216.667L187.667 217.333L187.333 216.667z"/>
<path style="fill:#a4ffd1; stroke:none;" d="M197.333 216.667L197.667 217.333L197.333 216.667z"/>
<path style="fill:#66fdb2; stroke:none;" d="M305.333 216.667L305.667 217.333L305.333 216.667z"/>
<path style="fill:#38fd9a; stroke:none;" d="M326.333 216.667L326.667 217.333L326.333 216.667M377 216L378 217L377 216z"/>
<path style="fill:#66fdb2; stroke:none;" d="M396 216L397 217L396 216z"/>
<path style="fill:#a4ffd1; stroke:none;" d="M402 216L403 217L402 216M416.333 216.667L416.667 217.333L416.333 216.667z"/>
<path style="fill:#66fdb2; stroke:none;" d="M422 216L423 217L422 216z"/>
<path style="fill:#38fd9a; stroke:none;" d="M482.333 216.667L482.667 217.333L482.333 216.667z"/>
<path style="fill:#a4ffd1; stroke:none;" d="M77.3333 217.667L77.6667 218.333L77.3333 217.667z"/>
<path style="fill:#66fdb2; stroke:none;" d="M83 217L84 218L83 217z"/>
<path style="fill:#a4ffd1; stroke:none;" d="M203 217L204 218L203 217z"/>
<path style="fill:#38fd9a; stroke:none;" d="M269 217L270 218L269 217M287 217L288 218L287 217z"/>
<path style="fill:#a4ffd1; stroke:none;" d="M350 217L350 221L351 221L350 217M371 217L372 218L371 217z"/>
<path style="fill:#66fdb2; stroke:none;" d="M377 217L378 218L377 217z"/>
<path style="fill:#a4ffd1; stroke:none;" d="M422.333 217.667L422.667 218.333L422.333 217.667z"/>
<path style="fill:#38fd9a; stroke:none;" d="M27.3333 218.667L27.6667 219.333L27.3333 218.667z"/>
<path style="fill:#66fdb2; stroke:none;" d="M60 218L61 219L60 218M66 218L67 219L66 218z"/>
<path style="fill:#a4ffd1; stroke:none;" d="M83.3333 218.667L83.6667 219.333L83.3333 218.667z"/>
<path style="fill:#66fdb2; stroke:none;" d="M105 218L106 219L105 218z"/>
<path style="fill:#38fd9a; stroke:none;" d="M121.333 218.667L121.667 219.333L121.333 218.667z"/>
<path style="fill:#66fdb2; stroke:none;" d="M145 218L145 219L181 219C171.44 214.989 155.387 218 145 218z"/>
<path style="fill:#38fd9a; stroke:none;" d="M181 218L182 219L181 218z"/>
<path style="fill:#a4ffd1; stroke:none;" d="M187.333 218.667L187.667 219.333L187.333 218.667z"/>
<path style="fill:#66fdb2; stroke:none;" d="M197.333 218.667L197.667 219.333L197.333 218.667M203 218L203 219L224 219L203 218z"/>
<path style="fill:#a4ffd1; stroke:none;" d="M224 218L225 219L224 218M242 218L243 219L242 218z"/>
<path style="fill:#66fdb2; stroke:none;" d="M243 218L243 219L264 219L243 218M269.333 218.667L269.667 219.333L269.333 218.667M287.333 218.667L287.667 219.333L287.333 218.667z"/>
<path style="fill:#38fd9a; stroke:none;" d="M305.333 218.667L305.667 219.333L305.333 218.667z"/>
<path style="fill:#66fdb2; stroke:none;" d="M326.333 218.667L326.667 219.333L326.333 218.667M356 218L356 222L357 222L356 218z"/>
<path style="fill:#38fd9a; stroke:none;" d="M371 218L372 219L371 218z"/>
<path style="fill:#a4ffd1; stroke:none;" d="M377 218L378 219L377 218M395 218L396 219L395 218z"/>
<path style="fill:#38fd9a; stroke:none;" d="M401 218L402 219L401 218z"/>
<path style="fill:#66fdb2; stroke:none;" d="M416.333 218.667L416.667 219.333L416.333 218.667M440 218L440 219L477 219C467.202 214.889 450.649 218 440 218M482.333 218.667L482.667 219.333L482.333 218.667z"/>
<path style="fill:#a4ffd1; stroke:none;" d="M60 219L61 220L60 219z"/>
<path style="fill:#38fd9a; stroke:none;" d="M66 219L67 220L66 219z"/>
<path style="fill:#66fdb2; stroke:none;" d="M77.3333 219.667L77.6667 220.333L77.3333 219.667z"/>
<path style="fill:#a4ffd1; stroke:none;" d="M99.3333 219.667L99.6667 220.333L99.3333 219.667M105 219L105 222L106 222L105 219z"/>
<path style="fill:#38fd9a; stroke:none;" d="M126.333 219.667L126.667 220.333L126.333 219.667z"/>
<path style="fill:#66fdb2; stroke:none;" d="M144.333 219.667L144.667 220.333L144.333 219.667z"/>
<path style="fill:#38fd9a; stroke:none;" d="M224 219L225 220L224 219M242.333 219.667L242.667 220.333L242.333 219.667z"/>
<path style="fill:#a4ffd1; stroke:none;" d="M281.333 219.667L281.667 220.333L281.333 219.667z"/>
<path style="fill:#38fd9a; stroke:none;" d="M310.333 219.667L310.667 220.333L310.333 219.667z"/>
<path style="fill:#a4ffd1; stroke:none;" d="M332.333 219.667L332.667 220.333L332.333 219.667z"/>
<path style="fill:#38fd9a; stroke:none;" d="M376 219L377 220L376 219M395 219L396 220L395 219z"/>
<path style="fill:#a4ffd1; stroke:none;" d="M401 219L402 220L401 219M439.333 219.667L439.667 220.333L439.333 219.667z"/>
<path style="fill:#38fd9a; stroke:none;" d="M32 220L33 221L32 220M61 220L62 221L61 220z"/>
<path style="fill:#a4ffd1; stroke:none;" d="M67 220L68 221L67 220z"/>
<path style="fill:#38fd9a; stroke:none;" d="M197 220L198 221L197 220z"/>
<path style="fill:#66fdb2; stroke:none;" d="M224 220L225 221L224 220z"/>
<path style="fill:#a4ffd1; stroke:none;" d="M269.333 220.667L269.667 221.333L269.333 220.667M287.333 220.667L287.667 221.333L287.333 220.667M326 220L326 223L327 223L326 220M370 220L371 221L370 220z"/>
<path style="fill:#66fdb2; stroke:none;" d="M376 220L377 221L376 220z"/>
<path style="fill:#38fd9a; stroke:none;" d="M416.333 220.667L416.667 221.333L416.333 220.667z"/>
<path style="fill:#a4ffd1; stroke:none;" d="M482.333 220.667L482.667 221.333L482.333 220.667z"/>
<path style="fill:#66fdb2; stroke:none;" d="M32.3333 221.667L32.6667 222.333L32.3333 221.667M61 221L62 222L61 221M67 221L68 222L67 221z"/>
<path style="fill:#38fd9a; stroke:none;" d="M77.3333 221.667L77.6667 222.333L77.3333 221.667z"/>
<path style="fill:#66fdb2; stroke:none;" d="M99 221L100 222L99 221M126.333 221.667L126.667 222.333L126.333 221.667z"/>
<path style="fill:#38fd9a; stroke:none;" d="M144.333 221.667L144.667 222.333L144.333 221.667z"/>
<path style="fill:#a4ffd1; stroke:none;" d="M224.333 221.667L224.667 222.333L224.333 221.667z"/>
<path style="fill:#66fdb2; stroke:none;" d="M281.333 221.667L281.667 222.333L281.333 221.667M310.333 221.667L310.667 222.333L310.333 221.667M332.333 221.667L332.667 222.333L332.333 221.667z"/>
<path style="fill:#38fd9a; stroke:none;" d="M370 221L371 222L370 221z"/>
<path style="fill:#a4ffd1; stroke:none;" d="M376 221L377 222L376 221M394 221L395 222L394 221z"/>
<path style="fill:#66fdb2; stroke:none;" d="M400 221L401 222L400 221z"/>
<path style="fill:#38fd9a; stroke:none;" d="M421.333 221.667L421.667 222.333L421.333 221.667z"/>
<path style="fill:#66fdb2; stroke:none;" d="M439.333 221.667L439.667 222.333L439.333 221.667z"/>
<path style="fill:#a4ffd1; stroke:none;" d="M26.3333 222.667L26.6667 223.333L26.3333 222.667z"/>
<path style="fill:#38fd9a; stroke:none;" d="M82.3333 222.667L82.6667 223.333L82.3333 222.667M99.3333 222.667L99.6667 223.333L99.3333 222.667z"/>
<path style="fill:#a4ffd1; stroke:none;" d="M120.333 222.667L120.667 223.333L120.333 222.667z"/>
<path style="fill:#38fd9a; stroke:none;" d="M186.333 222.667L186.667 223.333L186.333 222.667z"/>
<path style="fill:#a4ffd1; stroke:none;" d="M304.333 222.667L304.667 223.333L304.333 222.667z"/>
<path style="fill:#38fd9a; stroke:none;" d="M356 222L356 225L357 225L356 222M375 222L376 223L375 222M394 222L395 223L394 222z"/>
<path style="fill:#a4ffd1; stroke:none;" d="M400 222L401 223L400 222M32.3333 223.667L32.6667 224.333L32.3333 223.667z"/>
<path style="fill:#38fd9a; stroke:none;" d="M62 223L63 224L62 223z"/>
<path style="fill:#a4ffd1; stroke:none;" d="M68 223L69 224L68 223M126.333 223.667L126.667 224.333L126.333 223.667M241.333 223.667L241.667 224.333L241.333 223.667z"/>
<path style="fill:#38fd9a; stroke:none;" d="M281 223L282 224L281 223z"/>
<path style="fill:#a4ffd1; stroke:none;" d="M310.333 223.667L310.667 224.333L310.333 223.667z"/>
<path style="fill:#38fd9a; stroke:none;" d="M332 223L332 226L333 226L332 223z"/>
<path style="fill:#a4ffd1; stroke:none;" d="M369 223L370 224L369 223z"/>
<path style="fill:#66fdb2; stroke:none;" d="M375 223L376 224L375 223z"/>
<path style="fill:#a4ffd1; stroke:none;" d="M393 223L394 224L393 223z"/>
<path style="fill:#38fd9a; stroke:none;" d="M399 223L400 224L399 223z"/>
<path style="fill:#66fdb2; stroke:none;" d="M421.333 223.667L421.667 224.333L421.333 223.667z"/>
<path style="fill:#38fd9a; stroke:none;" d="M439.333 223.667L439.667 224.333L439.333 223.667z"/>
<path style="fill:#66fdb2; stroke:none;" d="M26.3333 224.667L26.6667 225.333L26.3333 224.667z"/>
<path style="fill:#a4ffd1; stroke:none;" d="M62 224L63 225L62 224z"/>
<path style="fill:#38fd9a; stroke:none;" d="M68 224L69 225L68 224z"/>
<path style="fill:#66fdb2; stroke:none;" d="M82.3333 224.667L82.6667 225.333L82.3333 224.667z"/>
<path style="fill:#38fd9a; stroke:none;" d="M104 224L105 225L104 224z"/>
<path style="fill:#66fdb2; stroke:none;" d="M120 224L121 225L120 224M149.333 224.667L149.667 225.333L149.333 224.667z"/>
<path style="fill:#38fd9a; stroke:none;" d="M218 224L219 225L218 224z"/>
<path style="fill:#a4ffd1; stroke:none;" d="M247.333 224.667L247.667 225.333L247.333 224.667z"/>
<path style="fill:#38fd9a; stroke:none;" d="M286.333 224.667L286.667 225.333L286.333 224.667z"/>
<path style="fill:#66fdb2; stroke:none;" d="M304.333 224.667L304.667 225.333L304.333 224.667z"/>
<path style="fill:#38fd9a; stroke:none;" d="M351 224L351 228L352 228L351 224M369 224L370 225L369 224z"/>
<path style="fill:#a4ffd1; stroke:none;" d="M375 224L376 225L375 224z"/>
<path style="fill:#66fdb2; stroke:none;" d="M393 224L394 225L393 224z"/>
<path style="fill:#a4ffd1; stroke:none;" d="M399 224L400 225L399 224M415.333 224.667L415.667 225.333L415.333 224.667z"/>
<path style="fill:#38fd9a; stroke:none;" d="M444.333 224.667L444.667 225.333L444.333 224.667z"/>
<path style="fill:#a4ffd1; stroke:none;" d="M76.3333 225.667L76.6667 226.333L76.3333 225.667z"/>
<path style="fill:#66fdb2; stroke:none;" d="M104.333 225.667L104.667 226.333L104.333 225.667z"/>
<path style="fill:#38fd9a; stroke:none;" d="M120.333 225.667L120.667 226.333L120.333 225.667z"/>
<path style="fill:#a4ffd1; stroke:none;" d="M143.333 225.667L143.667 226.333L143.333 225.667z"/>
<path style="fill:#66fdb2; stroke:none;" d="M241.333 225.667L241.667 226.333L241.333 225.667z"/>
<path style="fill:#38fd9a; stroke:none;" d="M327 225L327 228L328 228L327 225M374 225L375 226L374 225z"/>
<path style="fill:#a4ffd1; stroke:none;" d="M421.333 225.667L421.667 226.333L421.333 225.667z"/>
<path style="fill:#38fd9a; stroke:none;" d="M26 226L27 227L26 226z"/>
<path style="fill:#66fdb2; stroke:none;" d="M63 226L64 227L63 226z"/>
<path style="fill:#a4ffd1; stroke:none;" d="M69 226L70 227L69 226M82.3333 226.667L82.6667 227.333L82.3333 226.667M98.3333 226.667L98.6667 227.333L98.3333 226.667M149.333 226.667L149.667 227.333L149.333 226.667z"/>
<path style="fill:#38fd9a; stroke:none;" d="M223 226L224 227L223 226z"/>
<path style="fill:#a4ffd1; stroke:none;" d="M280 226L280 229L281 229L280 226z"/>
<path style="fill:#66fdb2; stroke:none;" d="M286 226L287 227L286 226z"/>
<path style="fill:#38fd9a; stroke:none;" d="M304 226L305 227L304 226z"/>
<path style="fill:#a4ffd1; stroke:none;" d="M368 226L369 227L368 226z"/>
<path style="fill:#66fdb2; stroke:none;" d="M374 226L375 227L374 226z"/>
<path style="fill:#a4ffd1; stroke:none;" d="M392 226L393 227L392 226z"/>
<path style="fill:#38fd9a; stroke:none;" d="M398 226L399 227L398 226z"/>
<path style="fill:#66fdb2; stroke:none;" d="M415 226L416 227L415 226M444.333 226.667L444.667 227.333L444.333 226.667z"/>
<path style="fill:#38fd9a; stroke:none;" d="M31.3333 227.667L31.6667 228.333L31.3333 227.667z"/>
<path style="fill:#a4ffd1; stroke:none;" d="M63 227L64 228L63 227z"/>
<path style="fill:#38fd9a; stroke:none;" d="M69 227L70 228L69 227z"/>
<path style="fill:#66fdb2; stroke:none;" d="M76.3333 227.667L76.6667 228.333L76.3333 227.667z"/>
<path style="fill:#a4ffd1; stroke:none;" d="M104.333 227.667L104.667 228.333L104.333 227.667z"/>
<path style="fill:#38fd9a; stroke:none;" d="M125.333 227.667L125.667 228.333L125.333 227.667z"/>
<path style="fill:#66fdb2; stroke:none;" d="M143.333 227.667L143.667 228.333L143.333 227.667M223.333 227.667L223.667 228.333L223.333 227.667z"/>
<path style="fill:#38fd9a; stroke:none;" d="M241 227L242 228L241 227z"/>
<path style="fill:#a4ffd1; stroke:none;" d="M286 227L286 230L287 230L286 227z"/>
<path style="fill:#38fd9a; stroke:none;" d="M309.333 227.667L309.667 228.333L309.333 227.667M368 227L369 228L368 227z"/>
<path style="fill:#a4ffd1; stroke:none;" d="M374 227L375 228L374 227z"/>
<path style="fill:#38fd9a; stroke:none;" d="M392 227L393 228L392 227z"/>
<path style="fill:#a4ffd1; stroke:none;" d="M398 227L399 228L398 227z"/>
<path style="fill:#38fd9a; stroke:none;" d="M415.333 227.667L415.667 228.333L415.333 227.667z"/>
<path style="fill:#a4ffd1; stroke:none;" d="M438.333 227.667L438.667 228.333L438.333 227.667z"/>
<path style="fill:#38fd9a; stroke:none;" d="M64 228L65 229L64 228z"/>
<path style="fill:#66fdb2; stroke:none;" d="M98.3333 228.667L98.6667 229.333L98.3333 228.667z"/>
<path style="fill:#a4ffd1; stroke:none;" d="M217.333 228.667L217.667 229.333L217.333 228.667z"/>
<path style="fill:#38fd9a; stroke:none;" d="M246.333 228.667L246.667 229.333L246.333 228.667z"/>
<path style="fill:#66fdb2; stroke:none;" d="M327.333 228.667L327.667 229.333L327.333 228.667z"/>
<path style="fill:#a4ffd1; stroke:none;" d="M333 228L333 231L334 231L333 228z"/>
<path style="fill:#66fdb2; stroke:none;" d="M351 228L351 231L352 231L351 228z"/>
<path style="fill:#38fd9a; stroke:none;" d="M373 228L374 229L373 228z"/>
<path style="fill:#a4ffd1; stroke:none;" d="M444.333 228.667L444.667 229.333L444.333 228.667M25 229L25 232L26 232L25 229z"/>
<path style="fill:#66fdb2; stroke:none;" d="M31 229L32 230L31 229M64 229L65 230L64 229M70 229L71 230L70 229z"/>
<path style="fill:#38fd9a; stroke:none;" d="M76 229L77 230L76 229z"/>
<path style="fill:#a4ffd1; stroke:none;" d="M119.333 229.667L119.667 230.333L119.333 229.667z"/>
<path style="fill:#66fdb2; stroke:none;" d="M125.333 229.667L125.667 230.333L125.333 229.667z"/>
<path style="fill:#38fd9a; stroke:none;" d="M143 229L144 230L143 229z"/>
<path style="fill:#a4ffd1; stroke:none;" d="M223.333 229.667L223.667 230.333L223.333 229.667z"/>
<path style="fill:#66fdb2; stroke:none;" d="M280 229L281 230L280 229z"/>
<path style="fill:#a4ffd1; stroke:none;" d="M303 229L303 232L304 232L303 229z"/>
<path style="fill:#66fdb2; stroke:none;" d="M309 229L310 230L309 229z"/>
<path style="fill:#a4ffd1; stroke:none;" d="M357 229L357 233L358 233L357 229M367 229L368 230L367 229z"/>
<path style="fill:#66fdb2; stroke:none;" d="M373 229L374 230L373 229z"/>
<path style="fill:#a4ffd1; stroke:none;" d="M391 229L392 230L391 229z"/>
<path style="fill:#66fdb2; stroke:none;" d="M397 229L398 230L397 229z"/>
<path style="fill:#38fd9a; stroke:none;" d="M420.333 229.667L420.667 230.333L420.333 229.667z"/>
<path style="fill:#66fdb2; stroke:none;" d="M438 229L439 230L438 229z"/>
<path style="fill:#a4ffd1; stroke:none;" d="M31 230L31 233L32 233L31 230z"/>
<path style="fill:#38fd9a; stroke:none;" d="M81.3333 230.667L81.6667 231.333L81.3333 230.667M98.3333 230.667L98.6667 231.333L98.3333 230.667M148.333 230.667L148.667 231.333L148.333 230.667z"/>
<path style="fill:#66fdb2; stroke:none;" d="M217 230L218 231L217 230M246 230L247 231L246 230z"/>
<path style="fill:#38fd9a; stroke:none;" d="M280.333 230.667L280.667 231.333L280.333 230.667z"/>
<path style="fill:#a4ffd1; stroke:none;" d="M309.333 230.667L309.667 231.333L309.333 230.667M327.333 230.667L327.667 231.333L327.333 230.667z"/>
<path style="fill:#38fd9a; stroke:none;" d="M367 230L368 231L367 230z"/>
<path style="fill:#a4ffd1; stroke:none;" d="M373 230L374 231L373 230z"/>
<path style="fill:#38fd9a; stroke:none;" d="M391 230L392 231L391 230z"/>
<path style="fill:#a4ffd1; stroke:none;" d="M397 230L398 231L397 230z"/>
<path style="fill:#38fd9a; stroke:none;" d="M438.333 230.667L438.667 231.333L438.333 230.667M65 231L66 232L65 231z"/>
<path style="fill:#a4ffd1; stroke:none;" d="M71 231L72 232L71 231z"/>
<path style="fill:#38fd9a; stroke:none;" d="M103.333 231.667L103.667 232.333L103.333 231.667z"/>
<path style="fill:#66fdb2; stroke:none;" d="M119.333 231.667L119.667 232.333L119.333 231.667z"/>
<path style="fill:#a4ffd1; stroke:none;" d="M125.333 231.667L125.667 232.333L125.333 231.667z"/>
<path style="fill:#38fd9a; stroke:none;" d="M217.333 231.667L217.667 232.333L217.333 231.667z"/>
<path style="fill:#a4ffd1; stroke:none;" d="M240.333 231.667L240.667 232.333L240.333 231.667M246 231L246 234L247 234L246 231z"/>
<path style="fill:#66fdb2; stroke:none;" d="M333.333 231.667L333.667 232.333L333.333 231.667z"/>
<path style="fill:#a4ffd1; stroke:none;" d="M351 231L351 235L352 235L351 231z"/>
<path style="fill:#38fd9a; stroke:none;" d="M372 231L373 232L372 231M396 231L397 232L396 231z"/>
<path style="fill:#a4ffd1; stroke:none;" d="M414.333 231.667L414.667 232.333L414.333 231.667z"/>
<path style="fill:#66fdb2; stroke:none;" d="M420.333 231.667L420.667 232.333L420.333 231.667M25 232L26 233L25 232z"/>
<path style="fill:#a4ffd1; stroke:none;" d="M65 232L66 233L65 232z"/>
<path style="fill:#66fdb2; stroke:none;" d="M71 232L72 233L71 232z"/>
<path style="fill:#a4ffd1; stroke:none;" d="M75 232L75 235L76 235L75 232z"/>
<path style="fill:#66fdb2; stroke:none;" d="M81 232L82 233L81 232z"/>
<path style="fill:#a4ffd1; stroke:none;" d="M142.333 232.667L142.667 233.333L142.333 232.667z"/>
<path style="fill:#66fdb2; stroke:none;" d="M148.333 232.667L148.667 233.333L148.333 232.667z"/>
<path style="fill:#38fd9a; stroke:none;" d="M285 232L286 233L285 232z"/>
<path style="fill:#66fdb2; stroke:none;" d="M303 232L304 233L303 232z"/>
<path style="fill:#a4ffd1; stroke:none;" d="M366 232L367 233L366 232z"/>
<path style="fill:#66fdb2; stroke:none;" d="M372 232L373 233L372 232M390 232L391 233L390 232M396 232L397 233L396 232z"/>
<path style="fill:#38fd9a; stroke:none;" d="M443.333 232.667L443.667 233.333L443.333 232.667M25.3333 233.667L25.6667 234.333L25.3333 233.667z"/>
<path style="fill:#a4ffd1; stroke:none;" d="M81.3333 233.667L81.6667 234.333L81.3333 233.667z"/>
<path style="fill:#66fdb2; stroke:none;" d="M103.333 233.667L103.667 234.333L103.333 233.667z"/>
<path style="fill:#38fd9a; stroke:none;" d="M119.333 233.667L119.667 234.333L119.333 233.667M222.333 233.667L222.667 234.333L222.333 233.667z"/>
<path style="fill:#66fdb2; stroke:none;" d="M240 233L241 234L240 233M285.333 233.667L285.667 234.333L285.333 233.667z"/>
<path style="fill:#38fd9a; stroke:none;" d="M303.333 233.667L303.667 234.333L303.333 233.667M333.333 233.667L333.667 234.333L333.333 233.667z"/>
<path style="fill:#66fdb2; stroke:none;" d="M357 233L357 236L358 236L357 233z"/>
<path style="fill:#38fd9a; stroke:none;" d="M366 233L367 234L366 233z"/>
<path style="fill:#a4ffd1; stroke:none;" d="M372 233L373 234L372 233z"/>
<path style="fill:#38fd9a; stroke:none;" d="M390 233L391 234L390 233z"/>
<path style="fill:#66fdb2; stroke:none;" d="M414.333 233.667L414.667 234.333L414.333 233.667z"/>
<path style="fill:#a4ffd1; stroke:none;" d="M420.333 233.667L420.667 234.333L420.333 233.667z"/>
<path style="fill:#66fdb2; stroke:none;" d="M66 234L67 235L66 234z"/>
<path style="fill:#a4ffd1; stroke:none;" d="M72 234L73 235L72 234M97.3333 234.667L97.6667 235.333L97.3333 234.667z"/>
<path style="fill:#66fdb2; stroke:none;" d="M142.333 234.667L142.667 235.333L142.333 234.667z"/>
<path style="fill:#a4ffd1; stroke:none;" d="M148 234L149 235L148 234z"/>
<path style="fill:#38fd9a; stroke:none;" d="M240.333 234.667L240.667 235.333L240.333 234.667z"/>
<path style="fill:#a4ffd1; stroke:none;" d="M279.333 234.667L279.667 235.333L279.333 234.667z"/>
<path style="fill:#38fd9a; stroke:none;" d="M371 234L372 235L371 234z"/>
<path style="fill:#a4ffd1; stroke:none;" d="M389 234L390 235L389 234z"/>
<path style="fill:#38fd9a; stroke:none;" d="M395 234L396 235L395 234z"/>
<path style="fill:#a4ffd1; stroke:none;" d="M437.333 234.667L437.667 235.333L437.333 234.667z"/>
<path style="fill:#66fdb2; stroke:none;" d="M443 234L444 235L443 234z"/>
<path style="fill:#38fd9a; stroke:none;" d="M30 235L31 236L30 235z"/>
<path style="fill:#a4ffd1; stroke:none;" d="M66 235L67 236L66 235z"/>
<path style="fill:#38fd9a; stroke:none;" d="M72 235L73 236L72 235z"/>
<path style="fill:#66fdb2; stroke:none;" d="M75.3333 235.667L75.6667 236.333L75.3333 235.667z"/>
<path style="fill:#a4ffd1; stroke:none;" d="M103.333 235.667L103.667 236.333L103.333 235.667z"/>
<path style="fill:#38fd9a; stroke:none;" d="M124.333 235.667L124.667 236.333L124.333 235.667z"/>
<path style="fill:#a4ffd1; stroke:none;" d="M216.333 235.667L216.667 236.333L216.333 235.667z"/>
<path style="fill:#66fdb2; stroke:none;" d="M222 235L223 236L222 235z"/>
<path style="fill:#a4ffd1; stroke:none;" d="M285.333 235.667L285.667 236.333L285.333 235.667z"/>
<path style="fill:#38fd9a; stroke:none;" d="M308 235L309 236L308 235M328.333 235.667L328.667 236.333L328.333 235.667z"/>
<path style="fill:#a4ffd1; stroke:none;" d="M365 235L366 236L365 235z"/>
<path style="fill:#66fdb2; stroke:none;" d="M371 235L372 236L371 235M389 235L390 236L389 235z"/>
<path style="fill:#a4ffd1; stroke:none;" d="M395 235L396 236L395 235z"/>
<path style="fill:#38fd9a; stroke:none;" d="M414.333 235.667L414.667 236.333L414.333 235.667z"/>
<path style="fill:#a4ffd1; stroke:none;" d="M474 235L475 236L474 235z"/>
<path style="fill:#66fdb2; stroke:none;" d="M30.3333 236.667L30.6667 237.333L30.3333 236.667M97.3333 236.667L97.6667 237.333L97.3333 236.667z"/>
<path style="fill:#38fd9a; stroke:none;" d="M142.333 236.667L142.667 237.333L142.333 236.667M178.333 236.667L178.667 237.333L178.333 236.667z"/>
<path style="fill:#a4ffd1; stroke:none;" d="M222 236L222 239L223 239L222 236z"/>
<path style="fill:#38fd9a; stroke:none;" d="M245 236L246 237L245 236z"/>
<path style="fill:#66fdb2; stroke:none;" d="M279.333 236.667L279.667 237.333L279.333 236.667M308.333 236.667L308.667 237.333L308.333 236.667z"/>
<path style="fill:#38fd9a; stroke:none;" d="M357 236L357 240L358 240L357 236M365 236L366 237L365 236z"/>
<path style="fill:#a4ffd1; stroke:none;" d="M371 236L372 237L371 236z"/>
<path style="fill:#66fdb2; stroke:none;" d="M437.333 236.667L437.667 237.333L437.333 236.667z"/>
<path style="fill:#a4ffd1; stroke:none;" d="M24.3333 237.667L24.6667 238.333L24.3333 237.667z"/>
<path style="fill:#66fdb2; stroke:none;" d="M67 237L68 238L67 237M73 237L74 238L73 237z"/>
<path style="fill:#38fd9a; stroke:none;" d="M75.3333 237.667L75.6667 238.333L75.3333 237.667z"/>
<path style="fill:#a4ffd1; stroke:none;" d="M118.333 237.667L118.667 238.333L118.333 237.667z"/>
<path style="fill:#66fdb2; stroke:none;" d="M124 237L125 238L124 237M216.333 237.667L216.667 238.333L216.333 237.667M245.333 237.667L245.667 238.333L245.333 237.667z"/>
<path style="fill:#a4ffd1; stroke:none;" d="M302.333 237.667L302.667 238.333L302.333 237.667z"/>
<path style="fill:#66fdb2; stroke:none;" d="M328.333 237.667L328.667 238.333L328.333 237.667z"/>
<path style="fill:#a4ffd1; stroke:none;" d="M334 237L334 240L335 240L334 237z"/>
<path style="fill:#38fd9a; stroke:none;" d="M370 237L371 238L370 237z"/>
<path style="fill:#a4ffd1; stroke:none;" d="M388 237L389 238L388 237z"/>
<path style="fill:#38fd9a; stroke:none;" d="M394 237L395 238L394 237M419.333 237.667L419.667 238.333L419.333 237.667z"/>
<path style="fill:#a4ffd1; stroke:none;" d="M30.3333 238.667L30.6667 239.333L30.3333 238.667z"/>
<path style="fill:#38fd9a; stroke:none;" d="M73 238L74 239L73 238M80 238L80 241L81 241L80 238M97 238L98 239L97 238z"/>
<path style="fill:#a4ffd1; stroke:none;" d="M124.333 238.667L124.667 239.333L124.333 238.667z"/>
<path style="fill:#66fdb2; stroke:none;" d="M178 238L179 239L178 238z"/>
<path style="fill:#a4ffd1; stroke:none;" d="M239.333 238.667L239.667 239.333L239.333 238.667z"/>
<path style="fill:#38fd9a; stroke:none;" d="M279.333 238.667L279.667 239.333L279.333 238.667z"/>
<path style="fill:#a4ffd1; stroke:none;" d="M308.333 238.667L308.667 239.333L308.333 238.667M364 238L365 239L364 238z"/>
<path style="fill:#66fdb2; stroke:none;" d="M370 238L371 239L370 238z"/>
<path style="fill:#38fd9a; stroke:none;" d="M388 238L389 239L388 238z"/>
<path style="fill:#a4ffd1; stroke:none;" d="M394 238L395 239L394 238z"/>
<path style="fill:#38fd9a; stroke:none;" d="M437 238C438.27 243.925 462.217 241 468 241L468 240C458.8 240 445.197 242.559 437 238M473.333 238.667L473.667 239.333L473.333 238.667z"/>
<path style="fill:#66fdb2; stroke:none;" d="M24.3333 239.667L24.6667 240.333L24.3333 239.667z"/>
<path style="fill:#38fd9a; stroke:none;" d="M68 239L69 240L68 239z"/>
<path style="fill:#a4ffd1; stroke:none;" d="M74 239L75 240L74 239z"/>
<path style="fill:#38fd9a; stroke:none;" d="M102.333 239.667L102.667 240.333L102.333 239.667z"/>
<path style="fill:#66fdb2; stroke:none;" d="M118.333 239.667L118.667 240.333L118.333 239.667z"/>
<path style="fill:#a4ffd1; stroke:none;" d="M178.333 239.667L178.667 240.333L178.333 239.667z"/>
<path style="fill:#38fd9a; stroke:none;" d="M216.333 239.667L216.667 240.333L216.333 239.667z"/>
<path style="fill:#a4ffd1; stroke:none;" d="M245.333 239.667L245.667 240.333L245.333 239.667z"/>
<path style="fill:#38fd9a; stroke:none;" d="M284.333 239.667L284.667 240.333L284.333 239.667z"/>
<path style="fill:#66fdb2; stroke:none;" d="M302.333 239.667L302.667 240.333L302.333 239.667z"/>
<path style="fill:#a4ffd1; stroke:none;" d="M328.333 239.667L328.667 240.333L328.333 239.667z"/>
<path style="fill:#38fd9a; stroke:none;" d="M352 239L352 242L353 242L352 239M364 239L365 240L364 239z"/>
<path style="fill:#a4ffd1; stroke:none;" d="M370 239L371 240L370 239M413.333 239.667L413.667 240.333L413.333 239.667z"/>
<path style="fill:#66fdb2; stroke:none;" d="M419 239L420 240L419 239z"/>
<path style="fill:#a4ffd1; stroke:none;" d="M68 240L69 241L68 240z"/>
<path style="fill:#66fdb2; stroke:none;" d="M74 240L75 241L74 240z"/>
<path style="fill:#a4ffd1; stroke:none;" d="M141 240L142 241L141 240z"/>
<path style="fill:#38fd9a; stroke:none;" d="M142 240L142 241L173 241L142 240z"/>
<path style="fill:#66fdb2; stroke:none;" d="M239.333 240.667L239.667 241.333L239.333 240.667M334.333 240.667L334.667 241.333L334.333 240.667z"/>
<path style="fill:#38fd9a; stroke:none;" d="M369 240L370 241L369 240z"/>
<path style="fill:#66fdb2; stroke:none;" d="M387 240L388 241L387 240M393 240L394 241L393 240z"/>
<path style="fill:#a4ffd1; stroke:none;" d="M419.333 240.667L419.667 241.333L419.333 240.667z"/>
<path style="fill:#66fdb2; stroke:none;" d="M473 240L474 241L473 240z"/>
<path style="fill:#38fd9a; stroke:none;" d="M24.3333 241.667L24.6667 242.333L24.3333 241.667z"/>
<path style="fill:#66fdb2; stroke:none;" d="M80.3333 241.667L80.6667 242.333L80.3333 241.667z"/>
<path style="fill:#a4ffd1; stroke:none;" d="M96 241L96 244L97 244L96 241z"/>
<path style="fill:#66fdb2; stroke:none;" d="M102 241L103 242L102 241z"/>
<path style="fill:#38fd9a; stroke:none;" d="M118.333 241.667L118.667 242.333L118.333 241.667z"/>
<path style="fill:#66fdb2; stroke:none;" d="M172 241L173 242L172 241z"/>
<path style="fill:#38fd9a; stroke:none;" d="M221 241L222 242L221 241z"/>
<path style="fill:#66fdb2; stroke:none;" d="M284.333 241.667L284.667 242.333L284.333 241.667z"/>
<path style="fill:#38fd9a; stroke:none;" d="M302.333 241.667L302.667 242.333L302.333 241.667z"/>
<path style="fill:#a4ffd1; stroke:none;" d="M363 241L364 242L363 241z"/>
<path style="fill:#66fdb2; stroke:none;" d="M369 241L370 242L369 241z"/>
<path style="fill:#38fd9a; stroke:none;" d="M387 241L388 242L387 241z"/>
<path style="fill:#a4ffd1; stroke:none;" d="M393 241L394 242L393 241z"/>
<path style="fill:#66fdb2; stroke:none;" d="M413.333 241.667L413.667 242.333L413.333 241.667z"/>
<path style="fill:#a4ffd1; stroke:none;" d="M467 241L468 242L467 241M473.333 241.667L473.667 242.333L473.333 241.667z"/>
<path style="fill:#38fd9a; stroke:none;" d="M29.3333 242.667L29.6667 243.333L29.3333 242.667M69 242L70 243L69 242z"/>
<path style="fill:#a4ffd1; stroke:none;" d="M102 242L102 245L103 245L102 242z"/>
<path style="fill:#38fd9a; stroke:none;" d="M123.333 242.667L123.667 243.333L123.333 242.667M172.333 242.667L172.667 243.333L172.333 242.667z"/>
<path style="fill:#66fdb2; stroke:none;" d="M221.333 242.667L221.667 243.333L221.333 242.667z"/>
<path style="fill:#38fd9a; stroke:none;" d="M239.333 242.667L239.667 243.333L239.333 242.667z"/>
<path style="fill:#a4ffd1; stroke:none;" d="M278.333 242.667L278.667 243.333L278.333 242.667z"/>
<path style="fill:#38fd9a; stroke:none;" d="M307.333 242.667L307.667 243.333L307.333 242.667M334.333 242.667L334.667 243.333L334.333 242.667z"/>
<path style="fill:#66fdb2; stroke:none;" d="M352 242L352 246L353 246L352 242z"/>
<path style="fill:#38fd9a; stroke:none;" d="M363 242L364 243L363 242z"/>
<path style="fill:#a4ffd1; stroke:none;" d="M369 242L370 243L369 242M386 242L387 243L386 242z"/>
<path style="fill:#38fd9a; stroke:none;" d="M392 242L393 243L392 242z"/>
<path style="fill:#66fdb2; stroke:none;" d="M467.333 242.667L467.667 243.333L467.333 242.667z"/>
<path style="fill:#a4ffd1; stroke:none;" d="M46 243L47 244L46 243z"/>
<path style="fill:#66fdb2; stroke:none;" d="M47 243L48 244L47 243z"/>
<path style="fill:#38fd9a; stroke:none;" d="M48.6667 243.333L49.3333 243.667L48.6667 243.333z"/>
<path style="fill:#a4ffd1; stroke:none;" d="M69 243L70 244L69 243M80 243L80 246L81 246L80 243z"/>
<path style="fill:#38fd9a; stroke:none;" d="M177.333 243.667L177.667 244.333L177.333 243.667z"/>
<path style="fill:#a4ffd1; stroke:none;" d="M215.333 243.667L215.667 244.333L215.333 243.667z"/>
<path style="fill:#38fd9a; stroke:none;" d="M244.333 243.667L244.667 244.333L244.333 243.667z"/>
<path style="fill:#a4ffd1; stroke:none;" d="M284.333 243.667L284.667 244.333L284.333 243.667M358 243L358 247L359 247L358 243z"/>
<path style="fill:#38fd9a; stroke:none;" d="M368 243L369 244L368 243z"/>
<path style="fill:#66fdb2; stroke:none;" d="M386 243L387 244L386 243z"/>
<path style="fill:#a4ffd1; stroke:none;" d="M392 243L393 244L392 243z"/>
<path style="fill:#38fd9a; stroke:none;" d="M413.333 243.667L413.667 244.333L413.333 243.667z"/>
<path style="fill:#66fdb2; stroke:none;" d="M29.3333 244.667L29.6667 245.333L29.3333 244.667M45 244L46 245L45 244M51 244L52 245L51 244M96 244L97 245L96 244M123.333 244.667L123.667 245.333L123.333 244.667z"/>
<path style="fill:#a4ffd1; stroke:none;" d="M221.333 244.667L221.667 245.333L221.333 244.667z"/>
<path style="fill:#66fdb2; stroke:none;" d="M278.333 244.667L278.667 245.333L278.333 244.667M307.333 244.667L307.667 245.333L307.333 244.667z"/>
<path style="fill:#38fd9a; stroke:none;" d="M329.333 244.667L329.667 245.333L329.333 244.667z"/>
<path style="fill:#a4ffd1; stroke:none;" d="M362 244L363 245L362 244z"/>
<path style="fill:#66fdb2; stroke:none;" d="M368 244L369 245L368 244z"/>
<path style="fill:#38fd9a; stroke:none;" d="M418.333 244.667L418.667 245.333L418.333 244.667M467 244L468 245L467 244z"/>
<path style="fill:#a4ffd1; stroke:none;" d="M23.3333 245.667L23.6667 246.333L23.3333 245.667z"/>
<path style="fill:#38fd9a; stroke:none;" d="M45.3333 245.667L45.6667 246.333L45.3333 245.667M51 245L52 246L51 245z"/>
<path style="fill:#66fdb2; stroke:none;" d="M70 245L71 246L70 245z"/>
<path style="fill:#38fd9a; stroke:none;" d="M96.3333 245.667L96.6667 246.333L96.3333 245.667z"/>
<path style="fill:#a4ffd1; stroke:none;" d="M117.333 245.667L117.667 246.333L117.333 245.667M171 245L171 248L172 248L171 245z"/>
<path style="fill:#66fdb2; stroke:none;" d="M177.333 245.667L177.667 246.333L177.333 245.667M215.333 245.667L215.667 246.333L215.333 245.667M244.333 245.667L244.667 246.333L244.333 245.667z"/>
<path style="fill:#a4ffd1; stroke:none;" d="M301.333 245.667L301.667 246.333L301.333 245.667z"/>
<path style="fill:#38fd9a; stroke:none;" d="M362 245L363 246L362 245z"/>
<path style="fill:#a4ffd1; stroke:none;" d="M368 245L369 246L368 245M385 245L386 246L385 245z"/>
<path style="fill:#38fd9a; stroke:none;" d="M391 245L392 246L391 245M472.333 245.667L472.667 246.333L472.333 245.667z"/>
<path style="fill:#a4ffd1; stroke:none;" d="M29.3333 246.667L29.6667 247.333L29.3333 246.667M52 246L53 247L52 246M70 246L71 247L70 246M123.333 246.667L123.667 247.333L123.333 246.667M238.333 246.667L238.667 247.333L238.333 246.667z"/>
<path style="fill:#38fd9a; stroke:none;" d="M278 246L279 247L278 246z"/>
<path style="fill:#a4ffd1; stroke:none;" d="M307.333 246.667L307.667 247.333L307.333 246.667z"/>
<path style="fill:#66fdb2; stroke:none;" d="M329.333 246.667L329.667 247.333L329.333 246.667z"/>
<path style="fill:#a4ffd1; stroke:none;" d="M352 246L352 250L353 250L352 246z"/>
<path style="fill:#38fd9a; stroke:none;" d="M385 246L386 247L385 246z"/>
<path style="fill:#a4ffd1; stroke:none;" d="M391 246L392 247L391 246M412 246L412 249L413 249L412 246z"/>
<path style="fill:#66fdb2; stroke:none;" d="M418.333 246.667L418.667 247.333L418.333 246.667M23.3333 247.667L23.6667 248.333L23.3333 247.667M52 247L53 248L52 247z"/>
<path style="fill:#38fd9a; stroke:none;" d="M71 247L72 248L71 247M101 247L102 248L101 247z"/>
<path style="fill:#66fdb2; stroke:none;" d="M117 247L118 248L117 247z"/>
<path style="fill:#a4ffd1; stroke:none;" d="M177.333 247.667L177.667 248.333L177.333 247.667z"/>
<path style="fill:#38fd9a; stroke:none;" d="M215 247L216 248L215 247z"/>
<path style="fill:#a4ffd1; stroke:none;" d="M244.333 247.667L244.667 248.333L244.333 247.667z"/>
<path style="fill:#38fd9a; stroke:none;" d="M283.333 247.667L283.667 248.333L283.333 247.667z"/>
<path style="fill:#66fdb2; stroke:none;" d="M301.333 247.667L301.667 248.333L301.333 247.667z"/>
<path style="fill:#a4ffd1; stroke:none;" d="M335.333 247.667L335.667 248.333L335.333 247.667z"/>
<path style="fill:#66fdb2; stroke:none;" d="M358 247L358 251L359 251L358 247z"/>
<path style="fill:#a4ffd1; stroke:none;" d="M361 247L362 248L361 247z"/>
<path style="fill:#66fdb2; stroke:none;" d="M367 247L368 248L367 247z"/>
<path style="fill:#a4ffd1; stroke:none;" d="M466.333 247.667L466.667 248.333L466.333 247.667z"/>
<path style="fill:#66fdb2; stroke:none;" d="M472.333 247.667L472.667 248.333L472.333 247.667M71 248L72 249L71 248M101.333 248.667L101.667 249.333L101.333 248.667z"/>
<path style="fill:#38fd9a; stroke:none;" d="M117.333 248.667L117.667 249.333L117.333 248.667z"/>
<path style="fill:#66fdb2; stroke:none;" d="M171 248L172 249L171 248z"/>
<path style="fill:#38fd9a; stroke:none;" d="M220.333 248.667L220.667 249.333L220.333 248.667z"/>
<path style="fill:#66fdb2; stroke:none;" d="M238.333 248.667L238.667 249.333L238.333 248.667z"/>
<path style="fill:#a4ffd1; stroke:none;" d="M329 248L329 251L330 251L329 248z"/>
<path style="fill:#38fd9a; stroke:none;" d="M361 248L362 249L361 248z"/>
<path style="fill:#a4ffd1; stroke:none;" d="M367 248L368 249L367 248M384 248L385 249L384 248z"/>
<path style="fill:#66fdb2; stroke:none;" d="M390 248L391 249L390 248z"/>
<path style="fill:#a4ffd1; stroke:none;" d="M418.333 248.667L418.667 249.333L418.333 248.667z"/>
<path style="fill:#38fd9a; stroke:none;" d="M23 249L24 250L23 249z"/>
<path style="fill:#a4ffd1; stroke:none;" d="M53 249L54 250L53 249z"/>
<path style="fill:#38fd9a; stroke:none;" d="M79 249L79 252L80 252L79 249z"/>
<path style="fill:#a4ffd1; stroke:none;" d="M95.3333 249.667L95.6667 250.333L95.3333 249.667z"/>
<path style="fill:#38fd9a; stroke:none;" d="M171.333 249.667L171.667 250.333L171.333 249.667z"/>
<path style="fill:#a4ffd1; stroke:none;" d="M277 249L277 252L278 252L277 249z"/>
<path style="fill:#66fdb2; stroke:none;" d="M283 249L284 250L283 249z"/>
<path style="fill:#38fd9a; stroke:none;" d="M301 249L302 250L301 249z"/>
<path style="fill:#66fdb2; stroke:none;" d="M335.333 249.667L335.667 250.333L335.333 249.667z"/>
<path style="fill:#38fd9a; stroke:none;" d="M384 249L385 250L384 249z"/>
<path style="fill:#a4ffd1; stroke:none;" d="M390 249L391 250L390 249z"/>
<path style="fill:#66fdb2; stroke:none;" d="M412 249L413 250L412 249M466.333 249.667L466.667 250.333L466.333 249.667z"/>
<path style="fill:#a4ffd1; stroke:none;" d="M472.333 249.667L472.667 250.333L472.333 249.667z"/>
<path style="fill:#38fd9a; stroke:none;" d="M28.3333 250.667L28.6667 251.333L28.3333 250.667z"/>
<path style="fill:#a4ffd1; stroke:none;" d="M44 250L44 253L45 253L44 250z"/>
<path style="fill:#38fd9a; stroke:none;" d="M53 250L54 251L53 250M72 250L73 251L72 250z"/>
<path style="fill:#a4ffd1; stroke:none;" d="M101.333 250.667L101.667 251.333L101.333 250.667z"/>
<path style="fill:#38fd9a; stroke:none;" d="M122.333 250.667L122.667 251.333L122.333 250.667z"/>
<path style="fill:#a4ffd1; stroke:none;" d="M214 250L214 253L215 253L214 250z"/>
<path style="fill:#66fdb2; stroke:none;" d="M220 250L221 251L220 250z"/>
<path style="fill:#38fd9a; stroke:none;" d="M238 250L239 251L238 250z"/>
<path style="fill:#a4ffd1; stroke:none;" d="M283 250L283 253L284 253L283 250z"/>
<path style="fill:#38fd9a; stroke:none;" d="M306.333 250.667L306.667 251.333L306.333 250.667z"/>
<path style="fill:#a4ffd1; stroke:none;" d="M360 250L361 251L360 250z"/>
<path style="fill:#66fdb2; stroke:none;" d="M366 250L367 251L366 250z"/>
<path style="fill:#a4ffd1; stroke:none;" d="M383 250L384 251L383 250z"/>
<path style="fill:#38fd9a; stroke:none;" d="M389 250L390 251L389 250M412.333 250.667L412.667 251.333L412.333 250.667z"/>
<path style="fill:#a4ffd1; stroke:none;" d="M72 251L73 252L72 251z"/>
<path style="fill:#66fdb2; stroke:none;" d="M95.3333 251.667L95.6667 252.333L95.3333 251.667z"/>
<path style="fill:#38fd9a; stroke:none;" d="M176.333 251.667L176.667 252.333L176.333 251.667z"/>
<path style="fill:#a4ffd1; stroke:none;" d="M220 251L220 254L221 254L220 251z"/>
<path style="fill:#38fd9a; stroke:none;" d="M243.333 251.667L243.667 252.333L243.333 251.667M335 251L335 254L336 254L335 251M358 251L359 255L360 255L358 251M360 251L361 252L360 251z"/>
<path style="fill:#a4ffd1; stroke:none;" d="M366 251L367 252L366 251z"/>
<path style="fill:#66fdb2; stroke:none;" d="M383 251L384 252L383 251M389 251L390 252L389 251z"/>
<path style="fill:#38fd9a; stroke:none;" d="M466.333 251.667L466.667 252.333L466.333 251.667z"/>
<path style="fill:#a4ffd1; stroke:none;" d="M22 252L22 255L23 255L22 252z"/>
<path style="fill:#66fdb2; stroke:none;" d="M28 252L29 253L28 252z"/>
<path style="fill:#a4ffd1; stroke:none;" d="M54 252L55 253L54 252z"/>
<path style="fill:#66fdb2; stroke:none;" d="M79.3333 252.667L79.6667 253.333L79.3333 252.667z"/>
<path style="fill:#a4ffd1; stroke:none;" d="M116.333 252.667L116.667 253.333L116.333 252.667z"/>
<path style="fill:#66fdb2; stroke:none;" d="M122.333 252.667L122.667 253.333L122.333 252.667M277 252L278 253L277 252z"/>
<path style="fill:#a4ffd1; stroke:none;" d="M300 252L300 255L301 255L300 252z"/>
<path style="fill:#66fdb2; stroke:none;" d="M306 252L307 253L306 252z"/>
<path style="fill:#38fd9a; stroke:none;" d="M383 252L384 253L383 252M417.333 252.667L417.667 253.333L417.333 252.667z"/>
<path style="fill:#a4ffd1; stroke:none;" d="M28 253L28 256L29 256L28 253z"/>
<path style="fill:#66fdb2; stroke:none;" d="M44.3333 253.667L44.6667 254.333L44.3333 253.667z"/>
<path style="fill:#38fd9a; stroke:none;" d="M54 253L55 254L54 253z"/>
<path style="fill:#66fdb2; stroke:none;" d="M73 253L74 254L73 253z"/>
<path style="fill:#38fd9a; stroke:none;" d="M95.3333 253.667L95.6667 254.333L95.3333 253.667z"/>
<path style="fill:#a4ffd1; stroke:none;" d="M170.333 253.667L170.667 254.333L170.333 253.667z"/>
<path style="fill:#66fdb2; stroke:none;" d="M176 253L177 254L176 253M214 253L215 254L214 253z"/>
<path style="fill:#a4ffd1; stroke:none;" d="M237 253L237 256L238 256L237 253z"/>
<path style="fill:#66fdb2; stroke:none;" d="M243 253L244 254L243 253z"/>
<path style="fill:#38fd9a; stroke:none;" d="M277.333 253.667L277.667 254.333L277.333 253.667z"/>
<path style="fill:#a4ffd1; stroke:none;" d="M306.333 253.667L306.667 254.333L306.333 253.667z"/>
<path style="fill:#38fd9a; stroke:none;" d="M330.333 253.667L330.667 254.333L330.333 253.667M353 253L353 257L354 257L353 253z"/>
<path style="fill:#a4ffd1; stroke:none;" d="M359 253L360 254L359 253z"/>
<path style="fill:#66fdb2; stroke:none;" d="M365 253L366 254L365 253z"/>
<path style="fill:#a4ffd1; stroke:none;" d="M382 253L383 254L382 253z"/>
<path style="fill:#38fd9a; stroke:none;" d="M388 253L389 254L388 253M471 253L472 254L471 253z"/>
<path style="fill:#a4ffd1; stroke:none;" d="M55 254L56 255L55 254M73 254L74 255L73 254z"/>
<path style="fill:#38fd9a; stroke:none;" d="M75 254L76 255L75 254z"/>
<path style="fill:#66fdb2; stroke:none;" d="M76.6667 254.333L77.3333 254.667L76.6667 254.333z"/>
<path style="fill:#a4ffd1; stroke:none;" d="M78 254L79 255L78 254z"/>
<path style="fill:#38fd9a; stroke:none;" d="M100.333 254.667L100.667 255.333L100.333 254.667z"/>
<path style="fill:#66fdb2; stroke:none;" d="M116.333 254.667L116.667 255.333L116.333 254.667z"/>
<path style="fill:#a4ffd1; stroke:none;" d="M122.333 254.667L122.667 255.333L122.333 254.667M176.333 254.667L176.667 255.333L176.333 254.667z"/>
<path style="fill:#38fd9a; stroke:none;" d="M214.333 254.667L214.667 255.333L214.333 254.667z"/>
<path style="fill:#a4ffd1; stroke:none;" d="M243.333 254.667L243.667 255.333L243.333 254.667M365 254L366 255L365 254z"/>
<path style="fill:#66fdb2; stroke:none;" d="M382 254L383 255L382 254z"/>
<path style="fill:#a4ffd1; stroke:none;" d="M388 254L389 255L388 254M411.333 254.667L411.667 255.333L411.333 254.667z"/>
<path style="fill:#66fdb2; stroke:none;" d="M417 254L418 255L417 254M471.333 254.667L471.667 255.333L471.333 254.667M22 255L23 256L22 255z"/>
<path style="fill:#38fd9a; stroke:none;" d="M44.3333 255.667L44.6667 256.333L44.3333 255.667z"/>
<path style="fill:#66fdb2; stroke:none;" d="M55 255L56 256L55 255z"/>
<path style="fill:#a4ffd1; stroke:none;" d="M139.333 255.667L139.667 256.333L139.333 255.667z"/>
<path style="fill:#38fd9a; stroke:none;" d="M140 255L140 256L171 256L140 255M282 255L283 256L282 255z"/>
<path style="fill:#66fdb2; stroke:none;" d="M300 255L301 256L300 255M330.333 255.667L330.667 256.333L330.333 255.667z"/>
<path style="fill:#a4ffd1; stroke:none;" d="M417 255L417 258L418 258L417 255z"/>
<path style="fill:#38fd9a; stroke:none;" d="M435 255L435 256L466 256L435 255M22.3333 256.667L22.6667 257.333L22.3333 256.667z"/>
<path style="fill:#66fdb2; stroke:none;" d="M100.333 256.667L100.667 257.333L100.333 256.667z"/>
<path style="fill:#38fd9a; stroke:none;" d="M116.333 256.667L116.667 257.333L116.333 256.667M219 256L220 257L219 256z"/>
<path style="fill:#66fdb2; stroke:none;" d="M237 256L238 257L237 256M282.333 256.667L282.667 257.333L282.333 256.667z"/>
<path style="fill:#38fd9a; stroke:none;" d="M300.333 256.667L300.667 257.333L300.333 256.667z"/>
<path style="fill:#a4ffd1; stroke:none;" d="M336.333 256.667L336.667 257.333L336.333 256.667z"/>
<path style="fill:#66fdb2; stroke:none;" d="M364 256L365 257L364 256z"/>
<path style="fill:#a4ffd1; stroke:none;" d="M381 256L382 257L381 256z"/>
<path style="fill:#66fdb2; stroke:none;" d="M387 256L388 257L387 256M411.333 256.667L411.667 257.333L411.333 256.667z"/>
<path style="fill:#a4ffd1; stroke:none;" d="M471.333 256.667L471.667 257.333L471.333 256.667z"/>
<path style="fill:#38fd9a; stroke:none;" d="M49 257L49 259L51 257L49 257z"/>
<path style="fill:#a4ffd1; stroke:none;" d="M56 257L57 258L56 257M94.3333 257.667L94.6667 258.333L94.3333 257.667z"/>
<path style="fill:#66fdb2; stroke:none;" d="M139.333 257.667L139.667 258.333L139.333 257.667M219.333 257.667L219.667 258.333L219.333 257.667z"/>
<path style="fill:#38fd9a; stroke:none;" d="M237.333 257.667L237.667 258.333L237.333 257.667z"/>
<path style="fill:#a4ffd1; stroke:none;" d="M276.333 257.667L276.667 258.333L276.333 257.667M330 257L330 260L331 260L330 257z"/>
<path style="fill:#66fdb2; stroke:none;" d="M353 257L353 260L354 260L353 257z"/>
<path style="fill:#a4ffd1; stroke:none;" d="M364 257L365 258L364 257z"/>
<path style="fill:#38fd9a; stroke:none;" d="M381 257L382 258L381 257z"/>
<path style="fill:#a4ffd1; stroke:none;" d="M387 257L388 258L387 257M434.333 257.667L434.667 258.333L434.333 257.667z"/>
<path style="fill:#38fd9a; stroke:none;" d="M27 258L28 259L27 258z"/>
<path style="fill:#a4ffd1; stroke:none;" d="M50 258L51 259L50 258z"/>
<path style="fill:#38fd9a; stroke:none;" d="M56 258L57 259L56 258z"/>
<path style="fill:#a4ffd1; stroke:none;" d="M100.333 258.667L100.667 259.333L100.333 258.667z"/>
<path style="fill:#38fd9a; stroke:none;" d="M121.333 258.667L121.667 259.333L121.333 258.667M175.333 258.667L175.667 259.333L175.333 258.667z"/>
<path style="fill:#a4ffd1; stroke:none;" d="M213.333 258.667L213.667 259.333L213.333 258.667M282.333 258.667L282.667 259.333L282.333 258.667z"/>
<path style="fill:#38fd9a; stroke:none;" d="M305 258L306 259L305 258z"/>
<path style="fill:#66fdb2; stroke:none;" d="M336 258L336 261L337 261L336 258z"/>
<path style="fill:#38fd9a; stroke:none;" d="M411.333 258.667L411.667 259.333L411.333 258.667z"/>
<path style="fill:#66fdb2; stroke:none;" d="M27.3333 259.667L27.6667 260.333L27.3333 259.667M49.3333 259.667L49.6667 260.333L49.3333 259.667M94.3333 259.667L94.6667 260.333L94.3333 259.667z"/>
<path style="fill:#38fd9a; stroke:none;" d="M139 259L140 260L139 259z"/>
<path style="fill:#a4ffd1; stroke:none;" d="M219.333 259.667L219.667 260.333L219.333 259.667z"/>
<path style="fill:#38fd9a; stroke:none;" d="M242 259L243 260L242 259z"/>
<path style="fill:#66fdb2; stroke:none;" d="M276.333 259.667L276.667 260.333L276.333 259.667M305.333 259.667L305.667 260.333L305.333 259.667M363 259L364 260L363 259M380 259L381 260L380 259M386 259L387 260L386 259M434 259L435 260L434 259z"/>
<path style="fill:#a4ffd1; stroke:none;" d="M21.3333 260.667L21.6667 261.333L21.3333 260.667M43 260L43 263L44 263L43 260z"/>
<path style="fill:#66fdb2; stroke:none;" d="M51 260L52 261L51 260z"/>
<path style="fill:#a4ffd1; stroke:none;" d="M57 260L58 261L57 260M115.333 260.667L115.667 261.333L115.333 260.667z"/>
<path style="fill:#66fdb2; stroke:none;" d="M121 260L122 261L121 260M175 260L176 261L175 260M213.333 260.667L213.667 261.333L213.333 260.667M242.333 260.667L242.667 261.333L242.333 260.667z"/>
<path style="fill:#a4ffd1; stroke:none;" d="M299.333 260.667L299.667 261.333L299.333 260.667M353 260L353 264L354 264L353 260M363 260L364 261L363 260z"/>
<path style="fill:#38fd9a; stroke:none;" d="M380 260L381 261L380 260z"/>
<path style="fill:#a4ffd1; stroke:none;" d="M386 260L387 261L386 260z"/>
<path style="fill:#38fd9a; stroke:none;" d="M416 260L417 261L416 260M434.333 260.667L434.667 261.333L434.333 260.667M470 260L471 261L470 260z"/>
<path style="fill:#a4ffd1; stroke:none;" d="M27.3333 261.667L27.6667 262.333L27.3333 261.667M49 261L49 264L50 264L49 261M51 261L52 262L51 261z"/>
<path style="fill:#38fd9a; stroke:none;" d="M57 261L58 262L57 261M94 261L95 262L94 261z"/>
<path style="fill:#a4ffd1; stroke:none;" d="M121.333 261.667L121.667 262.333L121.333 261.667z"/>
<path style="fill:#38fd9a; stroke:none;" d="M144 261L145 262L144 261z"/>
<path style="fill:#a4ffd1; stroke:none;" d="M236.333 261.667L236.667 262.333L236.333 261.667z"/>
<path style="fill:#38fd9a; stroke:none;" d="M276 261L277 262L276 261z"/>
<path style="fill:#a4ffd1; stroke:none;" d="M305.333 261.667L305.667 262.333L305.333 261.667z"/>
<path style="fill:#38fd9a; stroke:none;" d="M336.333 261.667L336.667 262.333L336.333 261.667z"/>
<path style="fill:#a4ffd1; stroke:none;" d="M379 261L380 262L379 261z"/>
<path style="fill:#38fd9a; stroke:none;" d="M385 261L386 262L385 261z"/>
<path style="fill:#66fdb2; stroke:none;" d="M416.333 261.667L416.667 262.333L416.333 261.667M21.3333 262.667L21.6667 263.333L21.3333 262.667z"/>
<path style="fill:#38fd9a; stroke:none;" d="M44 262L45 263L44 262M99.3333 262.667L99.6667 263.333L99.3333 262.667z"/>
<path style="fill:#66fdb2; stroke:none;" d="M115.333 262.667L115.667 263.333L115.333 262.667z"/>
<path style="fill:#a4ffd1; stroke:none;" d="M138.333 262.667L138.667 263.333L138.333 262.667z"/>
<path style="fill:#66fdb2; stroke:none;" d="M144.333 262.667L144.667 263.333L144.333 262.667z"/>
<path style="fill:#38fd9a; stroke:none;" d="M213 262L214 263L213 262z"/>
<path style="fill:#a4ffd1; stroke:none;" d="M242.333 262.667L242.667 263.333L242.333 262.667z"/>
<path style="fill:#38fd9a; stroke:none;" d="M281.333 262.667L281.667 263.333L281.333 262.667z"/>
<path style="fill:#66fdb2; stroke:none;" d="M299.333 262.667L299.667 263.333L299.333 262.667z"/>
<path style="fill:#38fd9a; stroke:none;" d="M331 262L331 265L332 265L331 262z"/>
<path style="fill:#66fdb2; stroke:none;" d="M362 262L363 263L362 262M379 262L380 263L379 262z"/>
<path style="fill:#a4ffd1; stroke:none;" d="M385 262L386 263L385 262M410.333 262.667L410.667 263.333L410.333 262.667z"/>
<path style="fill:#38fd9a; stroke:none;" d="M439.333 262.667L439.667 263.333L439.333 262.667z"/>
<path style="fill:#66fdb2; stroke:none;" d="M43 263L44 264L43 263M52 263L53 264L52 263M58 263L59 264L58 263z"/>
<path style="fill:#38fd9a; stroke:none;" d="M218.333 263.667L218.667 264.333L218.333 263.667z"/>
<path style="fill:#66fdb2; stroke:none;" d="M236.333 263.667L236.667 264.333L236.333 263.667z"/>
<path style="fill:#a4ffd1; stroke:none;" d="M362 263L363 264L362 263M416.333 263.667L416.667 264.333L416.333 263.667z"/>
<path style="fill:#38fd9a; stroke:none;" d="M21 264L22 265L21 264M43.3333 264.667L43.6667 265.333L43.3333 264.667z"/>
<path style="fill:#a4ffd1; stroke:none;" d="M93 264L93 267L94 267L93 264z"/>
<path style="fill:#66fdb2; stroke:none;" d="M99 264L100 265L99 264z"/>
<path style="fill:#38fd9a; stroke:none;" d="M115.333 264.667L115.667 265.333L115.333 264.667z"/>
<path style="fill:#66fdb2; stroke:none;" d="M138.333 264.667L138.667 265.333L138.333 264.667z"/>
<path style="fill:#a4ffd1; stroke:none;" d="M144.333 264.667L144.667 265.333L144.333 264.667z"/>
<path style="fill:#66fdb2; stroke:none;" d="M281.333 264.667L281.667 265.333L281.333 264.667z"/>
<path style="fill:#38fd9a; stroke:none;" d="M299 264L300 265L299 264z"/>
<path style="fill:#a4ffd1; stroke:none;" d="M378 264L379 265L378 264z"/>
<path style="fill:#38fd9a; stroke:none;" d="M384 264L385 265L384 264z"/>
<path style="fill:#66fdb2; stroke:none;" d="M410.333 264.667L410.667 265.333L410.333 264.667z"/>
<path style="fill:#a4ffd1; stroke:none;" d="M433.333 264.667L433.667 265.333L433.333 264.667z"/>
<path style="fill:#66fdb2; stroke:none;" d="M439.333 264.667L439.667 265.333L439.333 264.667z"/>
<path style="fill:#38fd9a; stroke:none;" d="M26.3333 265.667L26.6667 266.333L26.3333 265.667M53 265L54 266L53 265z"/>
<path style="fill:#a4ffd1; stroke:none;" d="M59 265L60 266L59 265M99.3333 265.667L99.6667 266.333L99.3333 265.667z"/>
<path style="fill:#38fd9a; stroke:none;" d="M120.333 265.667L120.667 266.333L120.333 265.667z"/>
<path style="fill:#66fdb2; stroke:none;" d="M218.333 265.667L218.667 266.333L218.333 265.667z"/>
<path style="fill:#38fd9a; stroke:none;" d="M236 265L237 266L236 265z"/>
<path style="fill:#a4ffd1; stroke:none;" d="M275.333 265.667L275.667 266.333L275.333 265.667z"/>
<path style="fill:#38fd9a; stroke:none;" d="M304.333 265.667L304.667 266.333L304.333 265.667z"/>
<path style="fill:#66fdb2; stroke:none;" d="M331.333 265.667L331.667 266.333L331.333 265.667z"/>
<path style="fill:#a4ffd1; stroke:none;" d="M337 265L337 268L338 268L337 265z"/>
<path style="fill:#66fdb2; stroke:none;" d="M361 265L362 266L361 265z"/>
<path style="fill:#38fd9a; stroke:none;" d="M378 265L379 266L378 265z"/>
<path style="fill:#a4ffd1; stroke:none;" d="M384 265L385 266L384 265z"/>
<path style="fill:#38fd9a; stroke:none;" d="M48.3333 266.667L48.6667 267.333L48.3333 266.667z"/>
<path style="fill:#a4ffd1; stroke:none;" d="M53 266L54 267L53 266z"/>
<path style="fill:#66fdb2; stroke:none;" d="M59 266L60 267L59 266z"/>
<path style="fill:#38fd9a; stroke:none;" d="M138.333 266.667L138.667 267.333L138.333 266.667z"/>
<path style="fill:#a4ffd1; stroke:none;" d="M212.333 266.667L212.667 267.333L212.333 266.667z"/>
<path style="fill:#38fd9a; stroke:none;" d="M241.333 266.667L241.667 267.333L241.333 266.667z"/>
<path style="fill:#a4ffd1; stroke:none;" d="M281.333 266.667L281.667 267.333L281.333 266.667M361 266L362 267L361 266z"/>
<path style="fill:#38fd9a; stroke:none;" d="M410.333 266.667L410.667 267.333L410.333 266.667z"/>
<path style="fill:#66fdb2; stroke:none;" d="M433.333 266.667L433.667 267.333L433.333 266.667z"/>
<path style="fill:#a4ffd1; stroke:none;" d="M439.333 266.667L439.667 267.333L439.333 266.667z"/>
<path style="fill:#66fdb2; stroke:none;" d="M26.3333 267.667L26.6667 268.333L26.3333 267.667M93 267L94 268L93 267M120.333 267.667L120.667 268.333L120.333 267.667z"/>
<path style="fill:#a4ffd1; stroke:none;" d="M218.333 267.667L218.667 268.333L218.333 267.667z"/>
<path style="fill:#66fdb2; stroke:none;" d="M275 267L276 268L275 267M304 267L305 268L304 267z"/>
<path style="fill:#a4ffd1; stroke:none;" d="M331.333 267.667L331.667 268.333L331.333 267.667z"/>
<path style="fill:#38fd9a; stroke:none;" d="M354 267L354 270L355 270L354 267z"/>
<path style="fill:#a4ffd1; stroke:none;" d="M377 267L378 268L377 267z"/>
<path style="fill:#66fdb2; stroke:none;" d="M383 267L384 268L383 267z"/>
<path style="fill:#38fd9a; stroke:none;" d="M415.333 267.667L415.667 268.333L415.333 267.667z"/>
<path style="fill:#a4ffd1; stroke:none;" d="M20.3333 268.667L20.6667 269.333L20.3333 268.667M42 268L42 271L43 271L42 268z"/>
<path style="fill:#66fdb2; stroke:none;" d="M48 268L49 269L48 268z"/>
<path style="fill:#38fd9a; stroke:none;" d="M54 268L55 269L54 268z"/>
<path style="fill:#a4ffd1; stroke:none;" d="M60 268L61 269L60 268z"/>
<path style="fill:#38fd9a; stroke:none;" d="M93.3333 268.667L93.6667 269.333L93.3333 268.667z"/>
<path style="fill:#a4ffd1; stroke:none;" d="M114.333 268.667L114.667 269.333L114.333 268.667z"/>
<path style="fill:#38fd9a; stroke:none;" d="M143.333 268.667L143.667 269.333L143.333 268.667z"/>
<path style="fill:#66fdb2; stroke:none;" d="M212 268L213 269L212 268M241 268L242 269L241 268z"/>
<path style="fill:#38fd9a; stroke:none;" d="M275.333 268.667L275.667 269.333L275.333 268.667z"/>
<path style="fill:#a4ffd1; stroke:none;" d="M298.333 268.667L298.667 269.333L298.333 268.667M304 268L304 271L305 271L304 268z"/>
<path style="fill:#66fdb2; stroke:none;" d="M337.333 268.667L337.667 269.333L337.333 268.667M360 268L361 269L360 268z"/>
<path style="fill:#38fd9a; stroke:none;" d="M377 268L378 269L377 268z"/>
<path style="fill:#a4ffd1; stroke:none;" d="M383 268L384 269L383 268z"/>
<path style="fill:#38fd9a; stroke:none;" d="M433.333 268.667L433.667 269.333L433.333 268.667z"/>
<path style="fill:#a4ffd1; stroke:none;" d="M26.3333 269.667L26.6667 270.333L26.3333 269.667M48 269L48 272L49 272L48 269M54 269L55 270L54 269z"/>
<path style="fill:#38fd9a; stroke:none;" d="M60 269L61 270L60 269z"/>
<path style="fill:#a4ffd1; stroke:none;" d="M120.333 269.667L120.667 270.333L120.333 269.667z"/>
<path style="fill:#38fd9a; stroke:none;" d="M212.333 269.667L212.667 270.333L212.333 269.667z"/>
<path style="fill:#a4ffd1; stroke:none;" d="M235.333 269.667L235.667 270.333L235.333 269.667M241 269L241 272L242 272L241 269M360 269L361 270L360 269M376 269L377 270L376 269z"/>
<path style="fill:#38fd9a; stroke:none;" d="M382 269L383 270L382 269z"/>
<path style="fill:#a4ffd1; stroke:none;" d="M409 269L409 272L410 272L409 269z"/>
<path style="fill:#66fdb2; stroke:none;" d="M415.333 269.667L415.667 270.333L415.333 269.667M20 270L21 271L20 270z"/>
<path style="fill:#38fd9a; stroke:none;" d="M98 270L99 271L98 270z"/>
<path style="fill:#66fdb2; stroke:none;" d="M114 270L115 271L114 270z"/>
<path style="fill:#a4ffd1; stroke:none;" d="M137.333 270.667L137.667 271.333L137.333 270.667z"/>
<path style="fill:#66fdb2; stroke:none;" d="M143 270L144 271L143 270z"/>
<path style="fill:#38fd9a; stroke:none;" d="M280.333 270.667L280.667 271.333L280.333 270.667z"/>
<path style="fill:#66fdb2; stroke:none;" d="M298 270L299 271L298 270z"/>
<path style="fill:#38fd9a; stroke:none;" d="M337.333 270.667L337.667 271.333L337.333 270.667z"/>
<path style="fill:#a4ffd1; stroke:none;" d="M354 270L354 271L357 271L354 270z"/>
<path style="fill:#66fdb2; stroke:none;" d="M357 270L358 271L357 270z"/>
<path style="fill:#38fd9a; stroke:none;" d="M358.667 270.333L359.333 270.667L358.667 270.333z"/>
<path style="fill:#66fdb2; stroke:none;" d="M376 270L377 271L376 270M382 270L383 271L382 270z"/>
<path style="fill:#38fd9a; stroke:none;" d="M438.333 270.667L438.667 271.333L438.333 270.667M20.3333 271.667L20.6667 272.333L20.3333 271.667z"/>
<path style="fill:#66fdb2; stroke:none;" d="M42 271L43 272L42 271M55 271L56 272L55 271M61 271L62 272L61 271M98.3333 271.667L98.6667 272.333L98.3333 271.667z"/>
<path style="fill:#38fd9a; stroke:none;" d="M114.333 271.667L114.667 272.333L114.333 271.667z"/>
<path style="fill:#a4ffd1; stroke:none;" d="M143.333 271.667L143.667 272.333L143.333 271.667z"/>
<path style="fill:#38fd9a; stroke:none;" d="M217.333 271.667L217.667 272.333L217.333 271.667z"/>
<path style="fill:#66fdb2; stroke:none;" d="M235 271L236 272L235 271z"/>
<path style="fill:#38fd9a; stroke:none;" d="M298.333 271.667L298.667 272.333L298.333 271.667z"/>
<path style="fill:#a4ffd1; stroke:none;" d="M415.333 271.667L415.667 272.333L415.333 271.667z"/>
<path style="fill:#38fd9a; stroke:none;" d="M42.3333 272.667L42.6667 273.333L42.3333 272.667z"/>
<path style="fill:#a4ffd1; stroke:none;" d="M55 272L56 273L55 272z"/>
<path style="fill:#38fd9a; stroke:none;" d="M61 272L62 273L61 272z"/>
<path style="fill:#a4ffd1; stroke:none;" d="M92.3333 272.667L92.6667 273.333L92.3333 272.667z"/>
<path style="fill:#66fdb2; stroke:none;" d="M137.333 272.667L137.667 273.333L137.333 272.667z"/>
<path style="fill:#38fd9a; stroke:none;" d="M235.333 272.667L235.667 273.333L235.333 272.667z"/>
<path style="fill:#a4ffd1; stroke:none;" d="M274.333 272.667L274.667 273.333L274.333 272.667z"/>
<path style="fill:#66fdb2; stroke:none;" d="M280 272L281 273L280 272z"/>
<path style="fill:#38fd9a; stroke:none;" d="M332.333 272.667L332.667 273.333L332.333 272.667z"/>
<path style="fill:#a4ffd1; stroke:none;" d="M375 272L376 273L375 272z"/>
<path style="fill:#38fd9a; stroke:none;" d="M381 272L382 273L381 272z"/>
<path style="fill:#66fdb2; stroke:none;" d="M409 272L410 273L409 272z"/>
<path style="fill:#a4ffd1; stroke:none;" d="M432.333 272.667L432.667 273.333L432.333 272.667z"/>
<path style="fill:#66fdb2; stroke:none;" d="M438 272L439 273L438 272z"/>
<path style="fill:#38fd9a; stroke:none;" d="M25.3333 273.667L25.6667 274.333L25.3333 273.667M56 273L57 274L56 273z"/>
<path style="fill:#a4ffd1; stroke:none;" d="M62 273L63 274L62 273M98.3333 273.667L98.6667 274.333L98.3333 273.667z"/>
<path style="fill:#38fd9a; stroke:none;" d="M119.333 273.667L119.667 274.333L119.333 273.667z"/>
<path style="fill:#a4ffd1; stroke:none;" d="M211.333 273.667L211.667 274.333L211.333 273.667z"/>
<path style="fill:#66fdb2; stroke:none;" d="M217 273L218 274L217 273z"/>
<path style="fill:#a4ffd1; stroke:none;" d="M280.333 273.667L280.667 274.333L280.333 273.667z"/>
<path style="fill:#38fd9a; stroke:none;" d="M303 273L304 274L303 273M375 273L376 274L375 273z"/>
<path style="fill:#a4ffd1; stroke:none;" d="M381 273L382 274L381 273z"/>
<path style="fill:#38fd9a; stroke:none;" d="M409.333 273.667L409.667 274.333L409.333 273.667z"/>
<path style="fill:#a4ffd1; stroke:none;" d="M438 273L439 274L438 273z"/>
<path style="fill:#38fd9a; stroke:none;" d="M47 274L48 275L47 274z"/>
<path style="fill:#66fdb2; stroke:none;" d="M56 274L57 275L56 274M62 274L63 275L62 274M92.3333 274.667L92.6667 275.333L92.3333 274.667z"/>
<path style="fill:#38fd9a; stroke:none;" d="M137.333 274.667L137.667 275.333L137.333 274.667M179.333 274.667L179.667 275.333L179.333 274.667z"/>
<path style="fill:#a4ffd1; stroke:none;" d="M217.333 274.667L217.667 275.333L217.333 274.667z"/>
<path style="fill:#38fd9a; stroke:none;" d="M240 274L241 275L240 274z"/>
<path style="fill:#66fdb2; stroke:none;" d="M274.333 274.667L274.667 275.333L274.333 274.667M303.333 274.667L303.667 275.333L303.333 274.667M332.333 274.667L332.667 275.333L332.333 274.667z"/>
<path style="fill:#a4ffd1; stroke:none;" d="M338 274L338 277L339 277L338 274z"/>
<path style="fill:#66fdb2; stroke:none;" d="M432.333 274.667L432.667 275.333L432.333 274.667z"/>
<path style="fill:#a4ffd1; stroke:none;" d="M19.3333 275.667L19.6667 276.333L19.3333 275.667z"/>
<path style="fill:#66fdb2; stroke:none;" d="M25 275L26 276L25 275M47.3333 275.667L47.6667 276.333L47.3333 275.667z"/>
<path style="fill:#a4ffd1; stroke:none;" d="M113.333 275.667L113.667 276.333L113.333 275.667z"/>
<path style="fill:#66fdb2; stroke:none;" d="M119 275L120 276L119 275M211.333 275.667L211.667 276.333L211.333 275.667M240.333 275.667L240.667 276.333L240.333 275.667z"/>
<path style="fill:#a4ffd1; stroke:none;" d="M297 275L297 278L298 278L297 275M374 275L375 276L374 275z"/>
<path style="fill:#66fdb2; stroke:none;" d="M380 275L381 276L380 275z"/>
<path style="fill:#38fd9a; stroke:none;" d="M414.333 275.667L414.667 276.333L414.333 275.667z"/>
<path style="fill:#a4ffd1; stroke:none;" d="M25.3333 276.667L25.6667 277.333L25.3333 276.667M41.3333 276.667L41.6667 277.333L41.3333 276.667z"/>
<path style="fill:#38fd9a; stroke:none;" d="M57 276L58 277L57 276z"/>
<path style="fill:#a4ffd1; stroke:none;" d="M63 276L64 277L63 276z"/>
<path style="fill:#38fd9a; stroke:none;" d="M92.3333 276.667L92.6667 277.333L92.3333 276.667z"/>
<path style="fill:#a4ffd1; stroke:none;" d="M119 276L119 279L120 279L119 276z"/>
<path style="fill:#66fdb2; stroke:none;" d="M179.333 276.667L179.667 277.333L179.333 276.667z"/>
<path style="fill:#a4ffd1; stroke:none;" d="M234.333 276.667L234.667 277.333L234.333 276.667z"/>
<path style="fill:#38fd9a; stroke:none;" d="M274.333 276.667L274.667 277.333L274.333 276.667z"/>
<path style="fill:#a4ffd1; stroke:none;" d="M303.333 276.667L303.667 277.333L303.333 276.667M332 276L332 279L333 279L332 276z"/>
<path style="fill:#38fd9a; stroke:none;" d="M374 276L375 277L374 276z"/>
<path style="fill:#a4ffd1; stroke:none;" d="M380 276L381 277L380 276z"/>
<path style="fill:#38fd9a; stroke:none;" d="M432.333 276.667L432.667 277.333L432.333 276.667M474.333 276.667L474.667 277.333L474.333 276.667z"/>
<path style="fill:#66fdb2; stroke:none;" d="M19.3333 277.667L19.6667 278.333L19.3333 277.667z"/>
<path style="fill:#a4ffd1; stroke:none;" d="M47.3333 277.667L47.6667 278.333L47.3333 277.667M57 277L58 278L57 277z"/>
<path style="fill:#38fd9a; stroke:none;" d="M63 277L64 278L63 277M97.3333 277.667L97.6667 278.333L97.3333 277.667z"/>
<path style="fill:#66fdb2; stroke:none;" d="M113.333 277.667L113.667 278.333L113.333 277.667z"/>
<path style="fill:#38fd9a; stroke:none;" d="M211.333 277.667L211.667 278.333L211.333 277.667z"/>
<path style="fill:#a4ffd1; stroke:none;" d="M240.333 277.667L240.667 278.333L240.333 277.667z"/>
<path style="fill:#66fdb2; stroke:none;" d="M338.333 277.667L338.667 278.333L338.333 277.667z"/>
<path style="fill:#38fd9a; stroke:none;" d="M379 277L380 278L379 277z"/>
<path style="fill:#a4ffd1; stroke:none;" d="M408.333 277.667L408.667 278.333L408.333 277.667z"/>
<path style="fill:#66fdb2; stroke:none;" d="M414 277L415 278L414 277M41.3333 278.667L41.6667 279.333L41.3333 278.667z"/>
<path style="fill:#a4ffd1; stroke:none;" d="M136.333 278.667L136.667 279.333L136.333 278.667M179.333 278.667L179.667 279.333L179.333 278.667z"/>
<path style="fill:#38fd9a; stroke:none;" d="M216.333 278.667L216.667 279.333L216.333 278.667z"/>
<path style="fill:#66fdb2; stroke:none;" d="M234.333 278.667L234.667 279.333L234.333 278.667z"/>
<path style="fill:#38fd9a; stroke:none;" d="M279 278L280 279L279 278z"/>
<path style="fill:#66fdb2; stroke:none;" d="M297 278L298 279L297 278M373 278L374 279L373 278M379 278L380 279L379 278z"/>
<path style="fill:#a4ffd1; stroke:none;" d="M414 278L414 281L415 281L414 278z"/>
<path style="fill:#66fdb2; stroke:none;" d="M474.333 278.667L474.667 279.333L474.333 278.667z"/>
<path style="fill:#38fd9a; stroke:none;" d="M19.3333 279.667L19.6667 280.333L19.3333 279.667z"/>
<path style="fill:#66fdb2; stroke:none;" d="M58 279L59 280L58 279z"/>
<path style="fill:#a4ffd1; stroke:none;" d="M64 279L65 280L64 279z"/>
<path style="fill:#66fdb2; stroke:none;" d="M97 279L98 280L97 279z"/>
<path style="fill:#38fd9a; stroke:none;" d="M113.333 279.667L113.667 280.333L113.333 279.667M137 279L137 280L174 280C164.202 275.889 147.649 279 137 279z"/>
<path style="fill:#66fdb2; stroke:none;" d="M279.333 279.667L279.667 280.333L279.333 279.667z"/>
<path style="fill:#38fd9a; stroke:none;" d="M297.333 279.667L297.667 280.333L297.333 279.667M338.333 279.667L338.667 280.333L338.333 279.667M373 279L374 280L373 279z"/>
<path style="fill:#a4ffd1; stroke:none;" d="M379 279L380 280L379 279z"/>
<path style="fill:#66fdb2; stroke:none;" d="M408.333 279.667L408.667 280.333L408.333 279.667z"/>
<path style="fill:#38fd9a; stroke:none;" d="M432 279L432 280L469 280C459.202 275.889 442.649 279 432 279M41.3333 280.667L41.6667 281.333L41.3333 280.667z"/>
<path style="fill:#a4ffd1; stroke:none;" d="M58 280L59 281L58 280z"/>
<path style="fill:#38fd9a; stroke:none;" d="M64 280L65 281L64 280z"/>
<path style="fill:#a4ffd1; stroke:none;" d="M91.3333 280.667L91.6667 281.333L91.3333 280.667M97 280L97 283L98 283L97 280z"/>
<path style="fill:#66fdb2; stroke:none;" d="M173 280L174 281L173 280M216.333 280.667L216.667 281.333L216.333 280.667z"/>
<path style="fill:#38fd9a; stroke:none;" d="M234.333 280.667L234.667 281.333L234.333 280.667z"/>
<path style="fill:#a4ffd1; stroke:none;" d="M273.333 280.667L273.667 281.333L273.333 280.667z"/>
<path style="fill:#38fd9a; stroke:none;" d="M302.333 280.667L302.667 281.333L302.333 280.667z"/>
<path style="fill:#a4ffd1; stroke:none;" d="M372 280L373 281L372 280z"/>
<path style="fill:#38fd9a; stroke:none;" d="M378 280L379 281L378 280z"/>
<path style="fill:#a4ffd1; stroke:none;" d="M468 280L469 281L468 280M474.333 280.667L474.667 281.333L474.333 280.667z"/>
<path style="fill:#38fd9a; stroke:none;" d="M24 281L25 282L24 281M46.3333 281.667L46.6667 282.333L46.3333 281.667M118 281L119 282L118 281M173.333 281.667L173.667 282.333L173.333 281.667z"/>
<path style="fill:#a4ffd1; stroke:none;" d="M210.333 281.667L210.667 282.333L210.333 281.667z"/>
<path style="fill:#38fd9a; stroke:none;" d="M239.333 281.667L239.667 282.333L239.333 281.667z"/>
<path style="fill:#a4ffd1; stroke:none;" d="M279.333 281.667L279.667 282.333L279.333 281.667z"/>
<path style="fill:#38fd9a; stroke:none;" d="M333.333 281.667L333.667 282.333L333.333 281.667z"/>
<path style="fill:#66fdb2; stroke:none;" d="M372 281L373 282L372 281z"/>
<path style="fill:#a4ffd1; stroke:none;" d="M378 281L379 282L378 281z"/>
<path style="fill:#38fd9a; stroke:none;" d="M408.333 281.667L408.667 282.333L408.333 281.667z"/>
<path style="fill:#66fdb2; stroke:none;" d="M468.333 281.667L468.667 282.333L468.333 281.667M24.3333 282.667L24.6667 283.333L24.3333 282.667M59 282L60 283L59 282M65 282L66 283L65 282M91.3333 282.667L91.6667 283.333L91.3333 282.667M118.333 282.667L118.667 283.333L118.333 282.667z"/>
<path style="fill:#38fd9a; stroke:none;" d="M178.333 282.667L178.667 283.333L178.333 282.667z"/>
<path style="fill:#a4ffd1; stroke:none;" d="M216.333 282.667L216.667 283.333L216.333 282.667z"/>
<path style="fill:#66fdb2; stroke:none;" d="M273.333 282.667L273.667 283.333L273.333 282.667M302.333 282.667L302.667 283.333L302.333 282.667z"/>
<path style="fill:#38fd9a; stroke:none;" d="M413.333 282.667L413.667 283.333L413.333 282.667z"/>
<path style="fill:#a4ffd1; stroke:none;" d="M18.3333 283.667L18.6667 284.333L18.3333 283.667z"/>
<path style="fill:#66fdb2; stroke:none;" d="M46.3333 283.667L46.6667 284.333L46.3333 283.667z"/>
<path style="fill:#a4ffd1; stroke:none;" d="M112.333 283.667L112.667 284.333L112.333 283.667z"/>
<path style="fill:#66fdb2; stroke:none;" d="M210.333 283.667L210.667 284.333L210.333 283.667M239.333 283.667L239.667 284.333L239.333 283.667z"/>
<path style="fill:#a4ffd1; stroke:none;" d="M296.333 283.667L296.667 284.333L296.333 283.667z"/>
<path style="fill:#66fdb2; stroke:none;" d="M333.333 283.667L333.667 284.333L333.333 283.667z"/>
<path style="fill:#a4ffd1; stroke:none;" d="M371 283L372 284L371 283z"/>
<path style="fill:#38fd9a; stroke:none;" d="M377 283L378 284L377 283M468.333 283.667L468.667 284.333L468.333 283.667z"/>
<path style="fill:#a4ffd1; stroke:none;" d="M24.3333 284.667L24.6667 285.333L24.3333 284.667M40.3333 284.667L40.6667 285.333L40.3333 284.667z"/>
<path style="fill:#38fd9a; stroke:none;" d="M60 284L61 285L60 284z"/>
<path style="fill:#a4ffd1; stroke:none;" d="M66 284L67 285L66 284z"/>
<path style="fill:#38fd9a; stroke:none;" d="M91 284L92 285L91 284z"/>
<path style="fill:#a4ffd1; stroke:none;" d="M118.333 284.667L118.667 285.333L118.333 284.667z"/>
<path style="fill:#66fdb2; stroke:none;" d="M178.333 284.667L178.667 285.333L178.333 284.667z"/>
<path style="fill:#a4ffd1; stroke:none;" d="M233.333 284.667L233.667 285.333L233.333 284.667z"/>
<path style="fill:#38fd9a; stroke:none;" d="M273 284L274 285L273 284z"/>
<path style="fill:#a4ffd1; stroke:none;" d="M302.333 284.667L302.667 285.333L302.333 284.667M339.333 284.667L339.667 285.333L339.333 284.667z"/>
<path style="fill:#38fd9a; stroke:none;" d="M371 284L372 285L371 284z"/>
<path style="fill:#a4ffd1; stroke:none;" d="M377 284L378 285L377 284z"/>
<path style="fill:#66fdb2; stroke:none;" d="M413.333 284.667L413.667 285.333L413.333 284.667z"/>
<path style="fill:#38fd9a; stroke:none;" d="M473.333 284.667L473.667 285.333L473.333 284.667z"/>
<path style="fill:#66fdb2; stroke:none;" d="M18.3333 285.667L18.6667 286.333L18.3333 285.667z"/>
<path style="fill:#a4ffd1; stroke:none;" d="M46.3333 285.667L46.6667 286.333L46.3333 285.667M60 285L61 286L60 285z"/>
<path style="fill:#66fdb2; stroke:none;" d="M66 285L67 286L66 285z"/>
<path style="fill:#38fd9a; stroke:none;" d="M96 285L97 286L96 285z"/>
<path style="fill:#66fdb2; stroke:none;" d="M112.333 285.667L112.667 286.333L112.333 285.667z"/>
<path style="fill:#a4ffd1; stroke:none;" d="M172.333 285.667L172.667 286.333L172.333 285.667z"/>
<path style="fill:#38fd9a; stroke:none;" d="M210 285L211 286L210 285z"/>
<path style="fill:#a4ffd1; stroke:none;" d="M239.333 285.667L239.667 286.333L239.333 285.667z"/>
<path style="fill:#38fd9a; stroke:none;" d="M278.333 285.667L278.667 286.333L278.333 285.667z"/>
<path style="fill:#66fdb2; stroke:none;" d="M296.333 285.667L296.667 286.333L296.333 285.667z"/>
<path style="fill:#a4ffd1; stroke:none;" d="M333 285L333 288L334 288L333 285M407.333 285.667L407.667 286.333L407.333 285.667z"/>
<path style="fill:#66fdb2; stroke:none;" d="M40.3333 286.667L40.6667 287.333L40.3333 286.667M96.3333 286.667L96.6667 287.333L96.3333 286.667z"/>
<path style="fill:#a4ffd1; stroke:none;" d="M178.333 286.667L178.667 287.333L178.333 286.667z"/>
<path style="fill:#38fd9a; stroke:none;" d="M215.333 286.667L215.667 287.333L215.333 286.667z"/>
<path style="fill:#66fdb2; stroke:none;" d="M233.333 286.667L233.667 287.333L233.333 286.667M339.333 286.667L339.667 287.333L339.333 286.667z"/>
<path style="fill:#a4ffd1; stroke:none;" d="M370 286L371 287L370 286z"/>
<path style="fill:#66fdb2; stroke:none;" d="M376 286L377 287L376 286z"/>
<path style="fill:#a4ffd1; stroke:none;" d="M413.333 286.667L413.667 287.333L413.333 286.667M467 286L467 289L468 289L467 286z"/>
<path style="fill:#66fdb2; stroke:none;" d="M473.333 286.667L473.667 287.333L473.333 286.667z"/>
<path style="fill:#38fd9a; stroke:none;" d="M18 287L19 288L18 287M61 287L62 288L61 287z"/>
<path style="fill:#a4ffd1; stroke:none;" d="M67 287L68 288L67 287M90 287L90 290L91 290L90 287z"/>
<path style="fill:#38fd9a; stroke:none;" d="M112.333 287.667L112.667 288.333L112.333 287.667z"/>
<path style="fill:#66fdb2; stroke:none;" d="M172 287L173 288L172 287z"/>
<path style="fill:#a4ffd1; stroke:none;" d="M272 287L272 290L273 290L272 287z"/>
<path style="fill:#66fdb2; stroke:none;" d="M278 287L279 288L278 287z"/>
<path style="fill:#38fd9a; stroke:none;" d="M296 287L297 288L296 287M370 287L371 288L370 287z"/>
<path style="fill:#a4ffd1; stroke:none;" d="M376 287L377 288L376 287z"/>
<path style="fill:#66fdb2; stroke:none;" d="M407.333 287.667L407.667 288.333L407.333 287.667z"/>
<path style="fill:#38fd9a; stroke:none;" d="M23.3333 288.667L23.6667 289.333L23.3333 288.667M40 288L41 289L40 288z"/>
<path style="fill:#a4ffd1; stroke:none;" d="M61 288L62 289L61 288z"/>
<path style="fill:#38fd9a; stroke:none;" d="M67 288L68 289L67 288z"/>
<path style="fill:#a4ffd1; stroke:none;" d="M96.3333 288.667L96.6667 289.333L96.3333 288.667z"/>
<path style="fill:#38fd9a; stroke:none;" d="M117.333 288.667L117.667 289.333L117.333 288.667M172.333 288.667L172.667 289.333L172.333 288.667z"/>
<path style="fill:#a4ffd1; stroke:none;" d="M209 288L209 291L210 291L209 288z"/>
<path style="fill:#66fdb2; stroke:none;" d="M215 288L216 289L215 288z"/>
<path style="fill:#38fd9a; stroke:none;" d="M233 288L234 289L233 288z"/>
<path style="fill:#a4ffd1; stroke:none;" d="M278 288L278 291L279 291L278 288z"/>
<path style="fill:#38fd9a; stroke:none;" d="M301.333 288.667L301.667 289.333L301.333 288.667M339 288L339 291L340 291L339 288z"/>
<path style="fill:#a4ffd1; stroke:none;" d="M369 288L370 289L369 288z"/>
<path style="fill:#38fd9a; stroke:none;" d="M375 288L376 289L375 288z"/>
<path style="fill:#a4ffd1; stroke:none;" d="M473.333 288.667L473.667 289.333L473.333 288.667z"/>
<path style="fill:#38fd9a; stroke:none;" d="M45.3333 289.667L45.6667 290.333L45.3333 289.667z"/>
<path style="fill:#a4ffd1; stroke:none;" d="M215.333 289.667L215.667 290.333L215.333 289.667z"/>
<path style="fill:#38fd9a; stroke:none;" d="M238.333 289.667L238.667 290.333L238.333 289.667z"/>
<path style="fill:#66fdb2; stroke:none;" d="M369 289L370 290L369 289z"/>
<path style="fill:#a4ffd1; stroke:none;" d="M375 289L376 290L375 289z"/>
<path style="fill:#38fd9a; stroke:none;" d="M407 289L408 290L407 289z"/>
<path style="fill:#66fdb2; stroke:none;" d="M467 289L468 290L467 289z"/>
<path style="fill:#a4ffd1; stroke:none;" d="M17 290L17 293L18 293L17 290z"/>
<path style="fill:#66fdb2; stroke:none;" d="M23 290L24 291L23 290M62 290L63 291L62 290M68 290L69 291L68 290M90 290L91 291L90 290z"/>
<path style="fill:#a4ffd1; stroke:none;" d="M111 290L111 293L112 293L111 290z"/>
<path style="fill:#66fdb2; stroke:none;" d="M117.333 290.667L117.667 291.333L117.333 290.667z"/>
<path style="fill:#38fd9a; stroke:none;" d="M177.333 290.667L177.667 291.333L177.333 290.667z"/>
<path style="fill:#66fdb2; stroke:none;" d="M272 290L273 291L272 290M301 290L302 291L301 290z"/>
<path style="fill:#38fd9a; stroke:none;" d="M334 290L334 293L335 293L334 290M412.333 290.667L412.667 291.333L412.333 290.667M467.333 290.667L467.667 291.333L467.333 290.667z"/>
<path style="fill:#a4ffd1; stroke:none;" d="M23 291L23 294L24 294L23 291z"/>
<path style="fill:#66fdb2; stroke:none;" d="M45 291L46 292L45 291z"/>
<path style="fill:#a4ffd1; stroke:none;" d="M62 291L63 292L62 291z"/>
<path style="fill:#38fd9a; stroke:none;" d="M68 291L69 292L68 291M90.3333 291.667L90.6667 292.333L90.3333 291.667z"/>
<path style="fill:#66fdb2; stroke:none;" d="M209 291L210 292L209 291z"/>
<path style="fill:#a4ffd1; stroke:none;" d="M232 291L232 294L233 294L232 291z"/>
<path style="fill:#66fdb2; stroke:none;" d="M238 291L239 292L238 291z"/>
<path style="fill:#38fd9a; stroke:none;" d="M272.333 291.667L272.667 292.333L272.333 291.667z"/>
<path style="fill:#a4ffd1; stroke:none;" d="M295.333 291.667L295.667 292.333L295.333 291.667M301 291L301 294L302 294L301 291M368 291L369 292L368 291z"/>
<path style="fill:#38fd9a; stroke:none;" d="M374 291L375 292L374 291z"/>
<path style="fill:#a4ffd1; stroke:none;" d="M39.3333 292.667L39.6667 293.333L39.3333 292.667M45 292L45 295L46 295L45 292z"/>
<path style="fill:#38fd9a; stroke:none;" d="M63 292L64 293L63 292z"/>
<path style="fill:#a4ffd1; stroke:none;" d="M69 292L70 293L69 292z"/>
<path style="fill:#38fd9a; stroke:none;" d="M95.3333 292.667L95.6667 293.333L95.3333 292.667z"/>
<path style="fill:#a4ffd1; stroke:none;" d="M117.333 292.667L117.667 293.333L117.333 292.667M171.333 292.667L171.667 293.333L171.333 292.667z"/>
<path style="fill:#66fdb2; stroke:none;" d="M177.333 292.667L177.667 293.333L177.333 292.667z"/>
<path style="fill:#38fd9a; stroke:none;" d="M209.333 292.667L209.667 293.333L209.333 292.667z"/>
<path style="fill:#a4ffd1; stroke:none;" d="M238.333 292.667L238.667 293.333L238.333 292.667z"/>
<path style="fill:#38fd9a; stroke:none;" d="M368 292L369 293L368 292z"/>
<path style="fill:#a4ffd1; stroke:none;" d="M374 292L375 293L374 292M406 292L406 295L407 295L406 292z"/>
<path style="fill:#66fdb2; stroke:none;" d="M412.333 292.667L412.667 293.333L412.333 292.667z"/>
<path style="fill:#38fd9a; stroke:none;" d="M472.333 292.667L472.667 293.333L472.333 292.667z"/>
<path style="fill:#66fdb2; stroke:none;" d="M17 293L18 294L17 293M63 293L64 294L63 293M69 293L70 294L69 293M111 293L112 294L111 293z"/>
<path style="fill:#38fd9a; stroke:none;" d="M277 293L278 294L277 293z"/>
<path style="fill:#66fdb2; stroke:none;" d="M295 293L296 294L295 293M334.333 293.667L334.667 294.333L334.333 293.667z"/>
<path style="fill:#a4ffd1; stroke:none;" d="M340 293L341 294L340 293z"/>
<path style="fill:#38fd9a; stroke:none;" d="M17.3333 294.667L17.6667 295.333L17.3333 294.667M23 294L23 295L40 295L23 294M70 294L70 295L90 295L70 294z"/>
<path style="fill:#66fdb2; stroke:none;" d="M95.3333 294.667L95.6667 295.333L95.3333 294.667z"/>
<path style="fill:#38fd9a; stroke:none;" d="M111.333 294.667L111.667 295.333L111.333 294.667M117 294L117 295L172 295L154 294L117 294z"/>
<path style="fill:#a4ffd1; stroke:none;" d="M177.333 294.667L177.667 295.333L177.333 294.667z"/>
<path style="fill:#38fd9a; stroke:none;" d="M215 294L215 295L233 295L215 294M278 294L278 295L295 295L278 294M340 294L340 295L368 295L340 294z"/>
<path style="fill:#66fdb2; stroke:none;" d="M373 294L374 295L373 294z"/>
<path style="fill:#38fd9a; stroke:none;" d="M412 294L412 295L467 295L449 294L412 294z"/>
<path style="fill:#66fdb2; stroke:none;" d="M472.333 294.667L472.667 295.333L472.333 294.667z"/>
<path style="fill:#38fd9a; stroke:none;" d="M64 295L65 296L64 295z"/>
<path style="fill:#a4ffd1; stroke:none;" d="M271.333 295.667L271.667 296.333L271.333 295.667M334.333 295.667L334.667 296.333L334.333 295.667M373 295L374 296L373 295z"/>
<path style="fill:#66fdb2; stroke:none;" d="M406 295L407 296L406 295z"/>
<path style="fill:#a4ffd1; stroke:none;" d="M64 296L65 297L64 296M95.3333 296.667L95.6667 297.333L95.3333 296.667M208.333 296.667L208.667 297.333L208.333 296.667z"/>
<path style="fill:#38fd9a; stroke:none;" d="M300 296L301 297L300 296M372 296L373 297L372 296M406.333 296.667L406.667 297.333L406.333 296.667z"/>
<path style="fill:#a4ffd1; stroke:none;" d="M472.333 296.667L472.667 297.333L472.333 296.667z"/>
<path style="fill:#38fd9a; stroke:none;" d="M44 297C37.9347 301.595 24.4503 299 17 299L17 300C21.2643 300 44.8083 301.903 44 297M237 297L238 298L237 297z"/>
<path style="fill:#66fdb2; stroke:none;" d="M271 297L271 300L272 300L271 297M300.333 297.667L300.667 298.333L300.333 297.667M372 297L373 298L372 297z"/>
<path style="fill:#a4ffd1; stroke:none;" d="M16.3333 298.667L16.6667 299.333L16.3333 298.667z"/>
<path style="fill:#66fdb2; stroke:none;" d="M65 298L66 299L65 298z"/>
<path style="fill:#a4ffd1; stroke:none;" d="M110.333 298.667L110.667 299.333L110.333 298.667z"/>
<path style="fill:#38fd9a; stroke:none;" d="M176 298C157.121 303.58 130.726 299 111 299L111 300C131.017 300 157.843 304.662 177 299L176 298z"/>
<path style="fill:#66fdb2; stroke:none;" d="M208.333 298.667L208.667 299.333L208.333 298.667M237 298L238 299L237 298z"/>
<path style="fill:#a4ffd1; stroke:none;" d="M44 299L45 300L44 299M65 299L66 300L65 299z"/>
<path style="fill:#38fd9a; stroke:none;" d="M66 299L66 300L95 300L66 299z"/>
<path style="fill:#66fdb2; stroke:none;" d="M176 299L177 300L176 299z"/>
<path style="fill:#38fd9a; stroke:none;" d="M209 299L209 300L237 300L209 299z"/>
<path style="fill:#a4ffd1; stroke:none;" d="M237 299L238 300L237 299z"/>
<path style="fill:#38fd9a; stroke:none;" d="M272 299L272 300L300 300L272 299z"/>
<path style="fill:#a4ffd1; stroke:none;" d="M300 299L301 300L300 299z"/>
<path style="fill:#38fd9a; stroke:none;" d="M335 299L335 300L371 300C361.44 295.989 345.387 299 335 299z"/>
<path style="fill:#66fdb2; stroke:none;" d="M371 299L372 300L371 299z"/>
<path style="fill:#38fd9a; stroke:none;" d="M406 299L406 300L472 300L451 299L406 299z"/>
</svg>
